<?xml version="1.0" encoding="UTF-8"?><svg xmlns="http://www.w3.org/2000/svg" xmlns:xlink="http://www.w3.org/1999/xlink" height="21.1" preserveAspectRatio="xMidYMid meet" version="1.0" viewBox="-0.0 1.5 24.1 21.1" width="24.1" zoomAndPan="magnify"><g id="change1_1"><path d="M12.183 6.521L12.184 6.522 12.185 6.522z" fill="inherit"/></g><g id="change1_2"><path d="M11.815 17.644L11.814 17.643 11.813 17.643z" fill="inherit"/></g><g id="change1_3"><path d="M23.849 11.066L23.851 11.071 23.852 11.071z" fill="inherit"/></g><g id="change2_1"><path d="M7.309,9.012l4.553-2.629c0.114-0.066,0.254-0.066,0.368,0l4.553,2.629c0.114,0.066,0.184,0.187,0.184,0.319 v5.258c0,0.132-0.07,0.253-0.184,0.319l-4.553,2.629c-0.114,0.066-0.254,0.066-0.368,0l-4.553-2.629 c-0.114-0.066-0.184-0.187-0.184-0.319V9.331C7.125,9.199,7.195,9.078,7.309,9.012L7.309,9.012z" fill="#8080F2"/></g><g id="change3_1"><path d="M23.852,11.529l-5.446-9.475c-0.198-0.343-0.563-0.595-0.959-0.595H6.554c-0.396,0-0.761,0.253-0.959,0.595 l-5.446,9.454c-0.198,0.343-0.198,0.775,0,1.118l5.446,9.397c0.198,0.343,0.563,0.518,0.959,0.518h10.893 c0.396,0,0.761-0.17,0.959-0.513l5.446-9.413C24.049,12.273,24.049,11.872,23.852,11.529L23.852,11.529z M19.342,16.085 c0,0.139-0.084,0.268-0.205,0.338L12.2,20.426c-0.122,0.07-0.271,0.07-0.392,0l-6.943-4.002c-0.121-0.07-0.205-0.199-0.205-0.338 V8.08c0-0.139,0.083-0.268,0.204-0.338L11.8,3.74c0.121-0.07,0.271-0.07,0.392,0l6.943,4.003c0.121,0.07,0.206,0.198,0.206,0.338 L19.342,16.085L19.342,16.085z" fill="#4B32C3"/></g></svg>