<?xml version="1.0" encoding="UTF-8" standalone="no"?><svg xmlns="http://www.w3.org/2000/svg" xmlns:xlink="http://www.w3.org/1999/xlink" fill="#288bc8" height="1502.2" preserveAspectRatio="xMidYMid meet" version="1" viewBox="-0.2 -15.4 1754.2 1502.2" width="1754.2" zoomAndPan="magnify"><g data-name="Layer 2"><g data-name="Layer 2"><g id="change1_1"><path d="M225.293,173.692a12.788,12.788,0,0,1,1.469,25.492h-.1a12.788,12.788,0,0,1-1.463-25.492Z" fill="#ff5b19"/></g><g id="change1_2"><path d="M405.169,186.48a10.7,10.7,0,0,1-9.386,10.622H281.635a10.7,10.7,0,0,1-1.314-21.328H394.463A10.707,10.707,0,0,1,405.169,186.48Z" fill="#ff5b19"/></g><g id="change1_3"><path d="M1160.864,1379.6l-.047.072-20.329,32.908H1691.03l-.048-.083h1.416l-42.187-72-19.836-33.854-15.488-26.426h-391.3l-.054.084h-1.314Zm480.027-120.446,106.927,182.487H1086.435l78.872-127.661,33.979-55a8.658,8.658,0,0,1,7.358-4.1h426.782A8.655,8.655,0,0,1,1640.891,1259.158Z" fill="#ff5b19"/></g><g id="change1_4"><path d="M1086.435,1441.645h661.383a39.253,39.253,0,0,1-39.255,39.255H1125.69A39.256,39.256,0,0,1,1086.435,1441.645Z" fill="#ff5b19"/></g><g id="change2_1"><path d="M1691.137,840.94a26.571,26.571,0,1,1-26.569,26.568A26.568,26.568,0,0,1,1691.137,840.94Z" fill="#000000"/></g><g id="change3_1"><path d="M1419.1,535.794c7.506,7.511,29.287,29.292,29.287,29.292l.725-.726.643.643,59.572-59.566-30.946-30.149a196.082,196.082,0,0,0,25.176-60.589h42.015v-.084h1.368V330.372h-43.365c-4.889-21.643-12.252-43.388-23.79-61.558,3.818-3.819,11.14-11.14,17.938-17.945,43.929,75.768,93.23,33.2,142.441,140.045,22.215,48.224-7.8,126.5,2.843,158.077,12.466,37,43.21,65.782,54.939,103.015,12.3,39.058,7.167,102.782-58.026,152.088a87.942,87.942,0,0,0-12.936,11.806c-22.595,25.563-36.465,66.317-32.706,98.779h-94.14l.243-73.263-177.847-.232-123.237-.161c.018-.03.042-.059.06-.089a106.235,106.235,0,0,0,16.54-42.217c4.509-28.394-2.343-58.073-17.01-82.8-12.591-21.221-30.232-39.3-60.125-42.769,4.532-26.426-1.481-54.7-17.058-76.589-19.58-27.508-57.253-44.155-90.97-42.526h-.006a101.655,101.655,0,0,0-.976-22.518c-3.021-19.258-11.716-37.28-24.177-52.221l-.648-.773-.208-187.727h135.964a244.617,244.617,0,0,0-11.872,39.582h-42.121v.083h-1.368V414.7h43.471a193.12,193.12,0,0,0,24.011,60.256l-29.863,30.559,59.566,59.566.726-.726.642.643,28.757-28.823a187.458,187.458,0,0,0,60.69,25.242V602.7h84.243V561.416a166.645,166.645,0,0,0,61.036-26.128l.017.024Zm126.728,166.927v.084h-16.285l-.077-.084a71.339,71.339,0,0,0-9.386-22.553l.529-.482L1533.1,667.2l-21.43-21.424-.642-.642-12.377,12.377a87.71,87.71,0,0,0-22.768-9.2l-.125-.03V631.5h-31.636v.083h-1.368v16.434l-.2.773a70,70,0,0,0-20.424,8.44l-12.74-12.461-.72.72-.648-.637-22.364,22.37,12.568,12,.618.791a69.825,69.825,0,0,0-9.492,22.7h-14.976v.084h-1.368v31.63h16.326a72.455,72.455,0,0,0,9.011,22.625l-.179.44-11.033,11.033L1409.5,790.9l.725-.726.643.643,10.45-10.45a70.477,70.477,0,0,0,22.28,9.159v15.5h31.636v-15.5a62.738,62.738,0,0,0,22.964-9.843l.464.523.148.172,10.522,10.522.725-.726,21.644-21.637-10.527-10.528-1.1-.8a72.693,72.693,0,0,0,9.38-22.684l.083-.1h16.285v-.084h1.368v-31.63Zm98.642-10.188a26.358,26.358,0,0,0-26.36-26.36c-.767,0-1.523.03-2.272.1a26.359,26.359,0,0,0,.9,52.7c.767,0,1.523-.03,2.272-.1A26.353,26.353,0,0,0,1644.471,692.533Zm-396.033-35.7a23.2,23.2,0,0,0-23.2-23.2c-.708,0-1.409.03-2.105.095a23.2,23.2,0,0,0,.737,46.38c.708,0,1.41-.029,2.106-.095A23.193,23.193,0,0,0,1248.438,656.829Z"/></g><g id="change2_2"><path d="M1690.982 1412.501L1691.03 1412.584 1414.135 1412.584 1414.135 1412.501 1415.503 1412.501 1690.982 1412.501z" fill="#000000"/></g><g id="change2_3"><path d="M1464.988,1377.564l57.787-.4,1.392-.012,52.489-.363,1.4-.012,46.91-.321-.036-.071,1.4-.012c-5.811-11.39-11.664-23.2-17.5-35.187l39.486-.3.125-.071.53-.006,42.008,71.687H1415.5l1.076-34.6,47.035-.327Z" fill="#000000"/></g><g id="change2_4"><path d="M1648.843 1340.588L1648.974 1340.814 1648.444 1340.82 1648.843 1340.588z" fill="#000000"/></g><g id="change2_5"><path d="M1629.281,1307.2l19.562,33.391-.4.232-39.647.3c-5.407-11.093-10.8-22.34-16.136-33.539l35.412-.3.125-.072Z" fill="#000000"/></g><g id="change2_6"><path d="M1648.444,1340.82l-.125.071-39.486.3-.036-.071Z" fill="#000000"/></g><g id="change1_5"><path d="M1638.381,1011.08v230.609a13.2,13.2,0,0,1-13.192,13.2H1209.07a13.2,13.2,0,0,1-13.2-13.2V927.871a13.194,13.194,0,0,1,13.2-13.192h23.274c0,.03.006.054.006.084h361.94c0-.03,0-.054-.011-.084h30.91a13.192,13.192,0,0,1,13.192,13.192Zm-36.876,190.76V967.721a13.192,13.192,0,0,0-13.192-13.192H1245.946a12.76,12.76,0,0,0-1.511.089A13.185,13.185,0,0,0,1231.38,967.8v234.119a13.2,13.2,0,0,0,13.2,13.2h342.367a12.748,12.748,0,0,0,1.511-.089A13.19,13.19,0,0,0,1601.505,1201.84Z" fill="#ff5b19"/></g><g id="change3_2"><path d="M1618.111,666.173a26.359,26.359,0,0,1,.9,52.7,26.358,26.358,0,0,0-2.272-52.619c-.3,0-.607.006-.9.018C1616.588,666.2,1617.344,666.173,1618.111,666.173Z"/></g><g id="change2_7"><path d="M1616.743,666.256a26.358,26.358,0,0,1,2.272,52.619c-.3.012-.6.018-.9.018a26.358,26.358,0,0,1-2.272-52.619C1616.136,666.262,1616.44,666.256,1616.743,666.256Z" fill="#000000"/></g><g id="change2_8"><path d="M1629.281 1307.197L1628.198 1307.209 1629.007 1306.733 1629.281 1307.197z" fill="#000000"/></g><g id="change2_9"><path d="M1613.519,1280.308l15.488,26.425-.809.476-35.573.3c-4.354-9.13-8.666-18.236-12.906-27.2Z" fill="#000000"/></g><g id="change2_10"><path d="M1628.2,1307.209l-.125.072-35.412.3-.036-.071Z" fill="#000000"/></g><g id="change2_11"><path d="M1626.337,1376.375l-1.4.012c-5.811-11.39-11.663-23.2-17.5-35.187l1.4-.012C1614.673,1353.173,1620.526,1364.985,1626.337,1376.375Z" fill="#000000"/></g><g id="change2_12"><path d="M1624.933,1376.387l.036.071-46.91.321-.035-.071Z" fill="#000000"/></g><g id="change2_13"><path d="M1624.933,1376.387l-46.909.321q-8.868-17.5-17.409-35.151l46.814-.357C1613.27,1353.185,1619.122,1365,1624.933,1376.387Z" fill="#000000"/></g><g id="change2_14"><path d="M1618.111,718.893c.3,0,.607-.006.9-.018-.749.072-1.505.1-2.272.1a26.359,26.359,0,0,1-.9-52.7,26.358,26.358,0,0,0,2.272,52.619Z" fill="#000000"/></g><g id="change2_15"><path d="M1608.8,1341.117l.036.071-1.4.012-.036-.071Z" fill="#000000"/></g><g id="change2_16"><path d="M1608.8,1341.117l-1.4.012c-5.406-11.093-10.8-22.34-16.136-33.539l1.4-.012C1598,1318.777,1603.39,1330.024,1608.8,1341.117Z" fill="#000000"/></g><g id="change2_17"><path d="M1607.393,1341.129l.036.071-46.814.357-.036-.071Z" fill="#000000"/></g><g id="change2_18"><path d="M1607.393,1341.129l-46.814.357q-8.083-16.685-15.863-33.51l46.541-.386C1596.592,1318.789,1601.987,1330.036,1607.393,1341.129Z" fill="#000000"/></g><g id="change2_19"><path d="M1600.137,967.8v234.119a13.194,13.194,0,0,1-11.681,13.109,1.14,1.14,0,0,1-.143.006H1245.946a13.2,13.2,0,0,1-13.2-13.2V967.721a13.188,13.188,0,0,1,11.687-13.1,1.148,1.148,0,0,1,.143-.006h342.367A13.192,13.192,0,0,1,1600.137,967.8Z" fill="#000000"/></g><g id="change3_3"><path d="M1594.279,914.679c.006.03.006.054.011.084h-94.151v-.084h94.14Z"/></g><g id="change2_20"><path d="M1592.661,1307.578l-1.4.012-.036-.072,1.4-.011Z" fill="#000000"/></g><g id="change2_21"><path d="M1592.625,1307.507l-1.4.011c-4.353-9.135-8.665-18.241-12.912-27.21h1.41C1583.959,1289.271,1588.271,1298.377,1592.625,1307.507Z" fill="#000000"/></g><g id="change2_22"><path d="M1591.221,1307.518l.036.072-46.541.386-.035-.071Z" fill="#000000"/></g><g id="change2_23"><path d="M1544.681,1307.905l-43.044.357q-4.264-13.6-8.416-27.954h85.088c4.247,8.969,8.559,18.075,12.912,27.21Z" fill="#000000"/></g><g id="change2_24"><path d="M1588.313,1215.038a1.14,1.14,0,0,0,.143-.006,12.748,12.748,0,0,1-1.511.089H1244.578a13.2,13.2,0,0,1-13.2-13.2V967.8a13.185,13.185,0,0,1,13.055-13.186,13.188,13.188,0,0,0-11.687,13.1V1201.84a13.2,13.2,0,0,0,13.2,13.2Z" fill="#000000"/></g><g id="change2_25"><path d="M1578.024,1376.708l.035.071-1.4.012-.036-.071Z" fill="#000000"/></g><g id="change2_26"><path d="M1578.024,1376.708l-1.4.012q-8.868-17.5-17.409-35.151l1.4-.012Q1569.153,1359.213,1578.024,1376.708Z" fill="#000000"/></g><g id="change2_27"><path d="M1576.62,1376.72l.036.071-52.489.363c-.006-.024-.018-.048-.024-.071Z" fill="#000000"/></g><g id="change2_28"><path d="M1576.62,1376.72l-52.477.363c-3.669-11.325-7.589-23.018-11.615-35.163l46.683-.351Q1567.749,1359.224,1576.62,1376.72Z" fill="#000000"/></g><g id="change2_29"><path d="M1560.579,1341.486l.036.071-1.4.012-.036-.071Z" fill="#000000"/></g><g id="change2_30"><path d="M1560.579,1341.486l-1.4.012q-8.082-16.685-15.862-33.51l1.4-.012Q1552.506,1324.8,1560.579,1341.486Z" fill="#000000"/></g><g id="change2_31"><path d="M1559.175,1341.5l.036.071-46.683.351c-.006-.024-.018-.048-.024-.072Z" fill="#000000"/></g><g id="change2_32"><path d="M1559.175,1341.5l-46.671.35c-3.575-10.8-7.221-21.952-10.843-33.515l41.652-.345Q1551.1,1324.815,1559.175,1341.5Z" fill="#000000"/></g><g id="change3_4"><path d="M1547.197 702.721L1547.197 734.351 1545.829 734.351 1545.829 702.805 1545.829 702.721 1547.197 702.721z"/></g><g id="change3_5"><path d="M1546.941 330.372L1546.941 414.615 1545.573 414.615 1545.573 330.455 1545.573 330.372 1546.941 330.372z"/></g><g id="change1_6"><path d="M1444.123,631.587h30.268v16.779l.125.029c6.2,1.457,16.475,5.157,23.582,9.707l.375-.411.179-.178,12.377-12.377.642.642L1533.1,667.2l-12.491,12.484-.529.482a71.339,71.339,0,0,1,9.386,22.553l.077.084h16.285v31.63h-16.285l-.083.1a72.693,72.693,0,0,1-9.38,22.684l1.1.8,10.527,10.528-21.644,21.637-.725.726-10.522-10.522-.148-.172-.464-.523a62.738,62.738,0,0,1-22.964,9.843v15.5H1443.6v-15.5a70.477,70.477,0,0,1-22.28-9.159c-.268-.167-.536-.339-.8-.512l-.078.107-10.212,10.212-.725.726-22.37-22.369,11.033-11.033.179-.44a72.455,72.455,0,0,1-9.011-22.625v-.084h-14.958V702.805h14.958c.006-.03.012-.054.018-.084a69.825,69.825,0,0,1,9.492-22.7l-.618-.791-12.568-12,22.364-22.37.648.637,12.567,12.294c.3-.185.595-.375.893-.553a70,70,0,0,1,20.424-8.44l.2-.773V631.587Zm43.674,86.949a25.8,25.8,0,0,0-25.8-25.8c-.755,0-1.505.03-2.248.1a25.8,25.8,0,0,0,.88,51.579c.761,0,1.511-.036,2.254-.1A25.8,25.8,0,0,0,1487.8,718.536Z" fill="#ff5b19"/></g><g id="change2_33"><path d="M1545.573,414.615v.084h-42.015c.006-.03.012-.054.018-.084Z" fill="#000000"/></g><g id="change2_34"><path d="M1351.375,602.616h-76.684V561.333a187.572,187.572,0,0,1-61.475-25.748l-.583.589c-.262-.166-.523-.339-.785-.5l-28.614,28.685-58.924-58.923,29.863-30.56a193.1,193.1,0,0,1-24.011-60.256h-43.471v-84.16h42.1c.006-.029.012-.053.018-.083h1.35a245.772,245.772,0,0,1,11.854-39.582,143.946,143.946,0,0,1,11.842-23.208l-1.683-1.605-31.8-30.357,58.853-58.847,34.538,33.789c.3-.184.589-.375.886-.553l.482.47a190.268,190.268,0,0,1,57.318-23.94V140.8h82.875v44.685c16.529,3.89,44.221,13.8,63.141,25.92l.583-.582.785.5,27.08-27.145,6.637-6.661,58.121,58.12s-6.762,6.763-14.417,14.424l-2.671,2.67c-.446.446-.9.892-1.344,1.344-.9.892-1.79,1.79-2.676,2.677l-4.5,4.5c-.618.613-1.219,1.213-1.8,1.8-.2.191-.387.387-.577.577-.571.565-1.118,1.118-1.641,1.642-.179.172-.351.345-.518.517l-.987.988-2.129,2.129c11.538,18.17,18.9,39.915,23.79,61.558h43.365v84.16h-42c-.006.03-.012.054-.018.084h-1.35a196.1,196.1,0,0,1-25.194,60.672l30.946,30.149-58.847,58.84c-3.747-3.747-22.821-22.821-29.126-29.131l-.017-.024c-.286.2-.577.4-.869.589l-.482-.482-.017-.024a166.645,166.645,0,0,1-61.036,26.128V602.7h-6.191Zm37.381-230.122a68.707,68.707,0,0,0-68.708-68.708q-2.382,0-4.722.167a68.707,68.707,0,0,0,3.354,137.332q2.382,0,4.723-.167A68.706,68.706,0,0,0,1388.756,372.494Z" fill="#000000"/></g><g id="change3_6"><path d="M1545.573,330.372v.083h-43.365c-4.889-21.643-12.252-43.388-23.79-61.558l2.129-2.129.987-.988c.167-.172.339-.345.518-.517l1.641-1.642c.19-.19.381-.386.577-.577l1.8-1.8,4.5-4.5,2.676-2.677c.446-.452.9-.9,1.344-1.344l2.671-2.67c.155.273.309.541.47.808-6.8,6.8-14.12,14.126-17.938,17.945,11.538,18.17,18.9,39.915,23.79,61.558Z"/></g><g id="change2_35"><path d="M1544.716,1307.976l-1.4.012-41.652.345c-.006-.024-.018-.047-.024-.071l43.044-.357Z" fill="#000000"/></g><g id="change2_36"><path d="M1524.143,1377.083c.006.023.018.047.024.071l-1.392.012c-.005-.024-.017-.048-.023-.071Z" fill="#000000"/></g><g id="change2_37"><path d="M1524.143,1377.083l-1.391.012c-3.67-11.325-7.59-23.018-11.616-35.163l1.392-.012C1516.554,1354.065,1520.474,1365.758,1524.143,1377.083Z" fill="#000000"/></g><g id="change2_38"><path d="M1522.752,1377.1c.006.023.018.047.023.071l-57.787.4c0-.023-.006-.047-.006-.071Z" fill="#000000"/></g><g id="change2_39"><path d="M1522.752,1377.1l-57.77.4q-1.909-17.593-3.8-35.181l49.955-.38C1515.162,1354.077,1519.082,1365.77,1522.752,1377.1Z" fill="#000000"/></g><g id="change2_40"><path d="M1512.5,1341.848c.006.024.018.048.024.072l-1.392.012c-.006-.024-.018-.048-.024-.072Z" fill="#000000"/></g><g id="change2_41"><path d="M1512.5,1341.848l-1.392.012c-3.575-10.8-7.22-21.953-10.843-33.515l1.392-.012C1505.283,1319.9,1508.929,1331.047,1512.5,1341.848Z" fill="#000000"/></g><g id="change2_42"><path d="M1511.112,1341.86c.006.024.018.048.024.072l-49.955.38c0-.023-.006-.047-.006-.071Z" fill="#000000"/></g><g id="change2_43"><path d="M1511.112,1341.86l-49.937.381q-1.819-16.773-3.628-33.539l42.722-.357C1503.892,1319.907,1507.537,1331.059,1511.112,1341.86Z" fill="#000000"/></g><g id="change3_7"><path d="M1509.328,505.437,1449.756,565l-.643-.643,58.847-58.84-30.946-30.149a196.1,196.1,0,0,0,25.194-60.672h1.35a196.082,196.082,0,0,1-25.176,60.589Z"/></g><g id="change2_44"><path d="M1501.637,1308.262c.006.024.018.047.024.071l-1.392.012a.391.391,0,0,0-.023-.071Z" fill="#000000"/></g><g id="change2_45"><path d="M1501.637,1308.262l-1.391.012c-2.837-9.065-5.663-18.379-8.416-27.966h1.391Q1497.352,1294.679,1501.637,1308.262Z" fill="#000000"/></g><g id="change3_8"><path d="M1500.382,841.416l-.243,73.263H1233.718c-2.623-28.037-14.59-52.946-36.983-70q1.32-1.792,2.563-3.652l123.237.161Z"/></g><g id="change2_46"><path d="M1500.246,1308.274a.391.391,0,0,1,.023.071l-42.722.357c0-.024-.006-.048-.006-.071Z" fill="#000000"/></g><g id="change2_47"><path d="M1418.715,1308.958l-42.068.351-44.477.368q4.486-14.265,8.862-29.369h150.8c2.753,9.587,5.579,18.9,8.416,27.966l-42.705.357Z" fill="#000000"/></g><g id="change3_9"><path d="M1500.139,914.679v.084H1232.35c0-.03-.006-.054-.006-.084h267.795Z"/></g><g id="change3_10"><path d="M1498.652,657.513l-.179.178-.375.411c-7.107-4.55-17.379-8.25-23.582-9.707l-.125-.029V631.587h-30.268V631.5h31.636v16.778l.125.03A87.71,87.71,0,0,1,1498.652,657.513Z"/></g><g id="change1_7"><path d="M1462,692.735a25.8,25.8,0,0,1,.886,51.579,25.8,25.8,0,0,0-2.254-51.495c-.3,0-.589.006-.88.017C1460.491,692.765,1461.241,692.735,1462,692.735Z" fill="#ff5b19"/></g><g id="change3_11"><path d="M1460.628,692.819a25.8,25.8,0,0,1,2.254,51.5c-.291.012-.589.018-.886.018a25.8,25.8,0,0,1-2.248-51.5C1460.039,692.825,1460.331,692.819,1460.628,692.819Z"/></g><g id="change2_48"><path d="M1464.982,1377.493c0,.024.006.048.006.071l-1.374.012c0-.024-.006-.047-.006-.071Z" fill="#000000"/></g><g id="change2_49"><path d="M1461.181,1342.312q1.9,17.593,3.8,35.181l-1.374.012q-1.909-17.593-3.8-35.181Z" fill="#000000"/></g><g id="change2_50"><path d="M1463.608,1377.505c0,.024.006.047.006.071l-47.035.327v-.071Z" fill="#000000"/></g><g id="change2_51"><path d="M1459.807,1342.324q1.9,17.593,3.8,35.181l-47.029.327,1.1-35.187Z" fill="#000000"/></g><g id="change3_12"><path d="M1462,744.332c.3,0,.595-.006.886-.018-.743.065-1.493.1-2.254.1a25.8,25.8,0,0,1-.88-51.579,25.8,25.8,0,0,0,2.248,51.5Z"/></g><g id="change2_52"><path d="M1461.175,1342.241c0,.024.006.048.006.071l-1.374.012c0-.023-.006-.047-.006-.071Z" fill="#000000"/></g><g id="change2_53"><path d="M1457.547,1308.7q1.82,16.773,3.628,33.539l-1.374.012q-1.82-16.773-3.628-33.539Z" fill="#000000"/></g><g id="change2_54"><path d="M1459.8,1342.253c0,.024.006.048.006.071l-42.133.321v-.071Z" fill="#000000"/></g><g id="change2_55"><path d="M1456.173,1308.714q1.821,16.773,3.628,33.539l-42.127.321,1.041-33.545Z" fill="#000000"/></g><g id="change2_56"><path d="M1457.541,1308.631c0,.023.006.047.006.071l-1.374.012-37.458.315v-.071Z" fill="#000000"/></g><g id="change2_57"><path d="M1453.55,177.517l-6.637,6.661-27.08,27.145-.785-.5,26.5-26.563,7.363-7.387Z" fill="#000000"/></g><g id="change2_58"><path d="M1449.113,564.36l-.725.726s-21.781-21.781-29.287-29.292c.292-.191.583-.387.869-.589l.017.024C1426.292,541.539,1445.366,560.613,1449.113,564.36Z" fill="#000000"/></g><g id="change3_13"><path d="M984.075,141.1v-.262a22.238,22.238,0,1,0,0,.262ZM734.01,145.512a23.919,23.919,0,1,0-1.368.042C733.1,145.554,733.558,145.542,734.01,145.512ZM1074.563,264.7l-1.641-.03-69.57-1.237.85,214.242c-17.736-20.5-42.657-34.884-69.612-38.2a95.517,95.517,0,0,0-18.318-.464c-31.708,1.73-62.981,18.735-76.577,47.1C824.742,454.15,786.011,436.586,751.158,439q-3.186.169-6.317.565a94.144,94.144,0,0,0-11.729,2.236q-.687.169-1.374.357c-40.17,10.872-73.305,47.165-79.776,89.435A104.14,104.14,0,0,0,651,553.976a98.073,98.073,0,0,0-10.057.178.027.027,0,0,1-.03,0,112.707,112.707,0,0,0-37.809,9.035l-34.182-.084V165.978A14.977,14.977,0,0,0,553.95,151H394.207c53.654-84.315,176.932-66.174,231.948-76.458C686.28,63.3,725.261,14.847,800.232,3.368,922.8-15.4,1003.833,48.707,1090.17,86.41c58.27,25.45,125.187-.791,188.732,1.29,67.822,2.219,138.587,38.869,166.631,96.549l.012.012-26.5,26.563c-18.9-11.9-46.053-21.585-62.356-25.421V140.718h-84.243v.083h-1.368v45.821a190.422,190.422,0,0,0-56.432,23.387l-34.7-33.956-.72.72-.648-.636L1119.005,235.7l31.8,30.357ZM844.519,384.223h44.34c.862,0,1.713-.036,2.557-.113a29.878,29.878,0,0,0,28.7-29.858V204.257a29.881,29.881,0,0,0-29.887-29.881H740.089c-.862,0-1.713.036-2.558.113a29.872,29.872,0,0,0-28.7,29.852V354.335c0,.143,0,.292.006.435a29.883,29.883,0,0,0,29.881,29.453h105.8Zm-195.442-29.37a23.972,23.972,0,1,0-23.969,23.975A23.97,23.97,0,0,0,649.077,354.853Z"/></g><g id="change3_14"><path d="M1422.129,657.234c-.3.178-.595.368-.893.553l-12.567-12.294.72-.72Z"/></g><g id="change3_15"><path d="M1420.517,779.857c.267.173.535.345.8.512l-10.45,10.45-.643-.643,10.212-10.212Z"/></g><g id="change3_16"><path d="M1419.048,210.824l-.583.582c-18.92-12.121-46.612-22.03-63.141-25.92V140.8h-82.875v-.083h84.243V185.4C1373,189.239,1400.152,198.928,1419.048,210.824Z"/></g><g id="change2_59"><path d="M1418.715,1308.958v.071l-1.368.012-40.706.339c0-.024.006-.048.006-.071Z" fill="#000000"/></g><g id="change2_60"><path d="M1418.715 1309.029L1417.674 1342.574 1416.306 1342.586 1417.347 1309.041 1418.715 1309.029z" fill="#000000"/></g><g id="change2_61"><path d="M1417.674 1342.574L1417.674 1342.645 1416.306 1342.657 1416.306 1342.586 1417.674 1342.574z" fill="#000000"/></g><g id="change2_62"><path d="M1417.674 1342.645L1416.579 1377.832 1415.211 1377.844 1416.306 1342.657 1417.674 1342.645z" fill="#000000"/></g><g id="change2_63"><path d="M1417.347,1309.041l-1.041,33.545-43.293.327q1.811-16.764,3.628-33.533Z" fill="#000000"/></g><g id="change2_64"><path d="M1416.579 1377.832L1416.579 1377.903 1415.211 1377.915 1415.211 1377.844 1416.579 1377.832z" fill="#000000"/></g><g id="change2_65"><path d="M1416.579 1377.903L1415.503 1412.501 1414.135 1412.501 1415.211 1377.915 1416.579 1377.903z" fill="#000000"/></g><g id="change2_66"><path d="M1416.306,1342.586v.071l-43.3.327c0-.023.006-.047.006-.071Z" fill="#000000"/></g><g id="change2_67"><path d="M1416.306,1342.657l-1.1,35.187-46.011.315q1.909-17.585,3.807-35.175Z" fill="#000000"/></g><g id="change2_68"><path d="M1415.211,1377.844v.071l-46.017.316c0-.024.006-.048.006-.072Z" fill="#000000"/></g><g id="change2_69"><path d="M1255.058 1379.022L1308.26 1378.653 1309.604 1378.641 1367.832 1378.242 1369.194 1378.231 1415.211 1377.915 1414.135 1412.501 1141.856 1412.501 1162.137 1379.664 1205.074 1379.372 1206.406 1379.361 1253.726 1379.033 1255.058 1379.022z" fill="#000000"/></g><g id="change2_70"><path d="M1414.135 1412.501L1414.135 1412.584 1140.488 1412.584 1160.817 1379.676 1162.137 1379.664 1141.856 1412.501 1414.135 1412.501z" fill="#000000"/></g><g id="change3_17"><path d="M1389.351,702.721c-.006.03-.012.054-.018.084h-14.958v-.084Z"/></g><g id="change1_8"><path d="M1389.333 734.351L1389.333 734.435 1373.007 734.435 1373.007 702.805 1374.375 702.805 1374.375 734.351 1389.333 734.351z" fill="#ff5b19"/></g><g id="change2_71"><path d="M1376.647,1309.309c0,.023-.006.047-.006.071l-1.362.012-43.133.357c.006-.024.018-.048.024-.072Z" fill="#000000"/></g><g id="change2_72"><path d="M1376.641,1309.38q-1.821,16.764-3.628,33.533l-1.362.012q1.81-16.764,3.628-33.533Z" fill="#000000"/></g><g id="change2_73"><path d="M1375.279,1309.392q-1.821,16.764-3.628,33.533l-50.383.381c3.58-10.813,7.238-21.983,10.878-33.557Z" fill="#000000"/></g><g id="change2_74"><path d="M1373.013,1342.913c0,.024-.006.048-.006.071l-1.362.012c0-.023.006-.047.006-.071Z" fill="#000000"/></g><g id="change2_75"><path d="M1373.007,1342.984q-1.91,17.585-3.807,35.175l-1.362.012q1.91-17.584,3.807-35.175Z" fill="#000000"/></g><g id="change2_76"><path d="M1371.651,1342.925c0,.024-.006.048-.006.071l-50.4.381c.006-.024.018-.048.024-.071Z" fill="#000000"/></g><g id="change2_77"><path d="M1371.645,1343q-1.909,17.584-3.807,35.175l-58.21.4c3.664-11.331,7.583-23.036,11.616-35.193Z" fill="#000000"/></g><g id="change2_78"><path d="M1320.048,303.786a68.707,68.707,0,0,1,3.355,137.332,68.706,68.706,0,0,0-4.723-137.249c-1.124,0-2.242.03-3.354.084Q1317.663,303.784,1320.048,303.786Z" fill="#000000"/></g><g id="change2_79"><path d="M1369.2,1378.159c0,.024-.006.048-.006.072l-1.362.011c0-.023.006-.047.006-.071Z" fill="#000000"/></g><g id="change3_18"><path d="M1318.68,303.869a68.706,68.706,0,0,1,4.723,137.249q-1.668.081-3.355.083a68.705,68.705,0,0,1-4.722-137.248C1316.438,303.9,1317.556,303.869,1318.68,303.869Z"/></g><g id="change2_80"><path d="M1367.838,1378.171c0,.024-.006.048-.006.071l-58.228.4c.006-.024.018-.048.024-.071Z" fill="#000000"/></g><g id="change2_81"><path d="M1351.375,602.616v.083h-78.052V561.416a187.458,187.458,0,0,1-60.69-25.242l.583-.589a187.572,187.572,0,0,0,61.475,25.748v41.283Z" fill="#000000"/></g><g id="change2_82"><path d="M1339.688,1280.308h1.344q-4.345,15.121-8.862,29.369l-1.344.012C1333.811,1300.179,1336.791,1290.4,1339.688,1280.308Z" fill="#000000"/></g><g id="change2_83"><path d="M1288.579,1310.046l-48.349.4c4.83-10.117,9.612-20.217,14.311-30.137h85.147c-2.9,10.087-5.877,19.871-8.862,29.381Z" fill="#000000"/></g><g id="change2_84"><path d="M1332.17,1309.677c-.006.024-.018.048-.024.072l-1.344.012c.006-.024.018-.048.024-.072Z" fill="#000000"/></g><g id="change2_85"><path d="M1330.8,1309.761l1.344-.012c-3.64,11.574-7.3,22.744-10.878,33.557l-1.345.012C1323.5,1332.505,1327.162,1321.335,1330.8,1309.761Z" fill="#000000"/></g><g id="change2_86"><path d="M1330.826,1309.689c-.006.024-.018.048-.024.072l-42.259.357.036-.072Z" fill="#000000"/></g><g id="change2_87"><path d="M1288.543,1310.118l42.259-.357c-3.64,11.574-7.3,22.744-10.879,33.557l-47.307.356Q1280.725,1326.973,1288.543,1310.118Z" fill="#000000"/></g><g id="change3_19"><path d="M1320.048,441.2q1.688,0,3.355-.083-2.337.17-4.723.167a68.707,68.707,0,0,1-3.354-137.332,68.705,68.705,0,0,0,4.722,137.248Z"/></g><g id="change2_88"><path d="M1321.268,1343.306c-.006.023-.018.047-.024.071l-1.344.012c.006-.024.018-.048.023-.071Z" fill="#000000"/></g><g id="change2_89"><path d="M1319.9,1343.389l1.344-.012c-4.033,12.157-7.952,23.862-11.616,35.193l-1.344.011C1311.948,1367.251,1315.867,1355.546,1319.9,1343.389Z" fill="#000000"/></g><g id="change2_90"><path d="M1319.923,1343.318c-.005.023-.017.047-.023.071l-47.32.357.036-.072Z" fill="#000000"/></g><g id="change2_91"><path d="M1272.58,1343.746l47.32-.357c-4.033,12.157-7.952,23.862-11.616,35.192l-53.19.369Q1264.006,1361.429,1272.58,1343.746Z" fill="#000000"/></g><g id="change2_92"><path d="M1309.628,1378.57c-.006.023-.018.047-.024.071l-1.344.012c.006-.024.018-.048.024-.072Z" fill="#000000"/></g><g id="change2_93"><path d="M1308.284,1378.581c-.006.024-.018.048-.024.072l-53.2.369.036-.072Z" fill="#000000"/></g><g id="change2_94"><path d="M1288.579,1310.046l-.036.072-1.332.011-47.016.387.035-.071Z" fill="#000000"/></g><g id="change2_95"><path d="M1287.211,1310.129l1.332-.011q-7.815,16.853-15.927,33.556l-1.333.012Q1279.394,1326.985,1287.211,1310.129Z" fill="#000000"/></g><g id="change2_96"><path d="M1240.2,1310.516l47.016-.387q-7.815,16.854-15.928,33.557l-47.248.357C1229.447,1332.969,1234.848,1321.727,1240.2,1310.516Z" fill="#000000"/></g><g id="change2_97"><path d="M1272.616,1343.674l-.036.072-1.332.012.035-.072Z" fill="#000000"/></g><g id="change2_98"><path d="M1271.248,1343.758l1.332-.012q-8.583,17.682-17.486,35.2l-1.333.012Q1262.674,1361.441,1271.248,1343.758Z" fill="#000000"/></g><g id="change2_99"><path d="M1272.449,140.8v45.738a190.268,190.268,0,0,0-57.318,23.94l-.482-.47a190.422,190.422,0,0,1,56.432-23.387V140.8Z" fill="#000000"/></g><g id="change2_100"><path d="M1271.283,1343.686l-.035.072-47.249.357.036-.072Z" fill="#000000"/></g><g id="change2_101"><path d="M1224,1344.115l47.249-.357q-8.583,17.682-17.487,35.2l-47.319.327C1212.258,1367.929,1218.135,1356.117,1224,1344.115Z" fill="#000000"/></g><g id="change2_102"><path d="M1255.094,1378.95l-.036.072-1.332.011.035-.071Z" fill="#000000"/></g><g id="change2_103"><path d="M1253.214,1280.308h1.327c-4.7,9.92-9.481,20.02-14.311,30.137l-1.332.012C1243.728,1300.334,1248.51,1290.234,1253.214,1280.308Z" fill="#000000"/></g><g id="change2_104"><path d="M1253.761,1378.962l-.035.071-47.32.328.036-.072Z" fill="#000000"/></g><g id="change2_105"><path d="M1238.9,1310.457l-.036.071c-5.347,11.211-10.747,22.452-16.159,33.527l-.036.071c-5.865,12-11.741,23.815-17.558,35.175l-42.924.292,61.344-99.285h29.685C1248.51,1290.234,1243.728,1300.334,1238.9,1310.457Z" fill="#000000"/></g><g id="change3_20"><path d="M1225.242,633.633a23.2,23.2,0,0,1,.738,46.38,23.2,23.2,0,0,0-2.106-46.3c-.244,0-.493.006-.737.012C1223.833,633.663,1224.534,633.633,1225.242,633.633Z"/></g><g id="change2_106"><path d="M1223.874,633.716a23.2,23.2,0,0,1,2.106,46.3c-.244.006-.494.012-.738.012a23.2,23.2,0,0,1-2.105-46.3C1223.381,633.722,1223.63,633.716,1223.874,633.716Z" fill="#000000"/></g><g id="change2_107"><path d="M1240.23,1310.445l-.035.071-1.333.012.036-.071Z" fill="#000000"/></g><g id="change2_108"><path d="M1238.862,1310.528l1.333-.012c-5.347,11.211-10.748,22.453-16.16,33.527l-1.332.012C1228.115,1332.98,1233.515,1321.739,1238.862,1310.528Z" fill="#000000"/></g><g id="change3_21"><path d="M1233.718,914.679h-1.374c-2.605-27.656-14.31-52.262-36.15-69.284.184-.238.362-.482.541-.72C1219.128,861.733,1231.1,886.642,1233.718,914.679Z"/></g><g id="change1_9"><path d="M1035.945,1318.4c-24.641,25.4-61.107,42.389-96.466,43.709s-71.045-11.473-100.218-33.348c.018-1,.035-2,.053-3,5.716-280.63,6.358-561.349,1.041-838.2,13-28.864,44.114-46.368,75.917-48.545a95.314,95.314,0,0,1,16.95.547c27.657,3.4,53.173,18.456,70.986,39.808,12.461,14.94,21.156,32.962,24.177,52.22a101.6,101.6,0,0,1,.976,22.518h.006c.452-.023.91-.041,1.362-.053,33.366-1.124,70.29,15.44,89.608,42.579,15.577,21.888,21.59,50.163,17.058,76.589.446.053.886.107,1.326.166,29.09,3.849,46.4,21.7,58.8,42.6,14.667,24.73,21.519,54.409,17.01,82.8a106.235,106.235,0,0,1-16.54,42.217q-1.268,1.9-2.623,3.741c.279.214.553.423.827.637,21.84,17.022,33.545,41.628,36.15,69.284H1209.07a13.194,13.194,0,0,0-13.2,13.192v313.818a13.2,13.2,0,0,0,13.2,13.2h-2.426a8.658,8.658,0,0,0-7.358,4.1l-33.979,55c-25.545,15.755-61.594,22.642-91.19,17.617A124.516,124.516,0,0,1,1035.945,1318.4Z" fill="#ff5b19"/></g><g id="change2_109"><path d="M1225.242,680.025c.244,0,.494-.006.738-.012-.7.066-1.4.095-2.106.095a23.2,23.2,0,0,1-.737-46.38,23.2,23.2,0,0,0,2.105,46.3Z" fill="#000000"/></g><g id="change2_110"><path d="M1224.035,1344.043l-.036.072-1.332.011.036-.071Z" fill="#000000"/></g><g id="change2_111"><path d="M1222.667,1344.126l1.332-.011c-5.864,12-11.741,23.814-17.557,35.174l-1.333.012C1210.926,1367.941,1216.8,1356.129,1222.667,1344.126Z" fill="#000000"/></g><g id="change2_112"><path d="M1223.529 1280.308L1162.185 1379.593 1160.864 1379.604 1222.215 1280.308 1223.529 1280.308z" fill="#000000"/></g><g id="change3_22"><path d="M1198.888,715.913c14.667,24.731,21.519,54.41,17.01,82.8a106.235,106.235,0,0,1-16.54,42.217c-.018.03-.042.059-.06.089H1198l-.006-.006a106.235,106.235,0,0,0,16.54-42.217c4.509-28.394-2.343-58.073-17.01-82.8-12.4-20.906-29.709-38.755-58.8-42.6.012-.083.03-.166.042-.249C1168.656,676.617,1186.3,694.692,1198.888,715.913Z"/></g><g id="change3_23"><path d="M1179.945,176.053l34.7,33.956c-.3.178-.588.369-.886.553l-34.538-33.789Z"/></g><g id="change3_24"><path d="M1211.848,535.669c.262.166.523.339.785.5L1183.876,565l-.642-.643Z"/></g><g id="change2_113"><path d="M1206.442,1379.289l-.036.072-1.332.011.035-.071Z" fill="#000000"/></g><g id="change2_114"><path d="M1205.109,1379.3l-.035.071-42.937.292.048-.071Z" fill="#000000"/></g><g id="change3_25"><path d="M1196.735,844.675c-.179.238-.357.482-.541.72-.274-.214-.548-.423-.827-.637q1.356-1.838,2.623-3.741l.006.006h1.3Q1198.059,842.879,1196.735,844.675Z"/></g><g id="change2_115"><path d="M1183.234,564.354l-.726.726-59.566-59.566,29.863-30.559a193.12,193.12,0,0,1-24.011-60.256v-.084h1.368a193.1,193.1,0,0,0,24.011,60.256l-29.863,30.56Z" fill="#000000"/></g><g id="change2_116"><path d="M1178.577,176.137l.648.636-58.853,58.847,31.8,30.357,1.683,1.605a143.946,143.946,0,0,0-11.842,23.208h-1.332a143.63,143.63,0,0,1,11.806-23.124l-1.683-1.606-31.8-30.357Z" fill="#000000"/></g><g id="change2_117"><path d="M1162.185 1379.593L1162.137 1379.664 1160.817 1379.676 1160.864 1379.604 1162.185 1379.593z" fill="#000000"/></g><g id="change3_26"><path d="M1150.807,266.06l1.683,1.606a143.63,143.63,0,0,0-11.806,23.124H1074.29l.273-26.086Z"/></g><g id="change2_118"><path d="M1140.684,290.79h1.332a245.772,245.772,0,0,0-11.854,39.582h-1.35A244.617,244.617,0,0,1,1140.684,290.79Z" fill="#000000"/></g><g id="change3_27"><path d="M1121.705,596.555c15.577,21.888,21.59,50.163,17.058,76.589-.012.083-.03.166-.042.249-.44-.059-.88-.113-1.326-.166,4.532-26.426-1.481-54.7-17.058-76.589-19.318-27.139-56.242-43.7-89.608-42.579v-.03h.006C1064.452,552.4,1102.125,569.047,1121.705,596.555Z"/></g><g id="change3_28"><path d="M1128.812,330.372c-.006.03-.012.054-.018.083h-42.1v-.083Z"/></g><g id="change2_119"><path d="M1128.794 414.615L1128.794 414.699 1085.323 414.699 1085.323 330.455 1086.691 330.455 1086.691 414.615 1128.794 414.615z" fill="#000000"/></g><g id="change3_29"><path d="M1074.563,264.7l-.273,26.086h-69.57l.208,187.727c-.238-.279-.482-.559-.726-.838l-.85-214.242,69.57,1.237Z"/></g><g id="change2_120"><path d="M1030.069,1381.543a26.571,26.571,0,0,1,2.3,53.042c-.309.012-.618.018-.933.018a26.571,26.571,0,0,1-2.3-53.042C1029.444,1381.549,1029.753,1381.543,1030.069,1381.543Z" fill="#000000"/></g><g id="change2_121"><path d="M1003.5,1407.832a26.577,26.577,0,0,1,25.635-26.271,26.571,26.571,0,0,0,2.3,53.042c.315,0,.624-.006.933-.018-.761.065-1.528.1-2.3.1a26.569,26.569,0,0,1-26.569-26.568Z" fill="#000000"/></g><g id="change3_30"><path d="M1004.928,478.517l.648.773c12.461,14.941,21.156,32.963,24.177,52.221a101.655,101.655,0,0,1,.976,22.518v.03c-.452.012-.91.03-1.362.053h-.006a101.6,101.6,0,0,0-.976-22.518c-3.021-19.258-11.716-37.28-24.177-52.22l-.006-1.7C1004.446,477.958,1004.69,478.238,1004.928,478.517Z"/></g><g id="change3_31"><path d="M1004.2,477.679l.006,1.7c-17.813-21.352-43.329-36.412-70.986-39.808a95.314,95.314,0,0,0-16.95-.547,95.517,95.517,0,0,1,18.318.464C961.545,442.8,986.466,457.183,1004.2,477.679Z"/></g><g id="change2_122"><path d="M984.075,141.1a22.5,22.5,0,1,1,0-.262Z" fill="#000000"/></g><g id="change3_32"><path d="M920.114,308.122v46.13a29.878,29.878,0,0,1-28.7,29.858,29.878,29.878,0,0,0,27.33-29.775V308.122Z"/></g><g id="change3_33"><path d="M920.114,279.258v28.864h-1.368V279.258Z"/></g><g id="change3_34"><path d="M920.114,250.394v28.864h-1.368V250.394Z"/></g><g id="change3_35"><path d="M920.114,204.257v46.137h-1.368V204.341a29.881,29.881,0,0,0-29.887-29.882h-44.34v-.083h45.708A29.881,29.881,0,0,1,920.114,204.257Z"/></g><g id="change1_10"><path d="M918.746,279.258v75.077a29.878,29.878,0,0,1-27.33,29.775c-.392.023-.791.029-1.189.029H740.089a29.88,29.88,0,0,1-29.881-29.369c-.006-.173-.006-.345-.006-.518V204.257a29.872,29.872,0,0,1,27.329-29.768c.393-.024.792-.03,1.19-.03H888.859a29.881,29.881,0,0,1,29.887,29.882v74.917Zm-64.5-7.833a7.991,7.991,0,1,0-7.994,7.981A7.99,7.99,0,0,0,854.243,271.425Z" fill="#ff5b19"/></g><g id="change1_11"><path d="M890.227,384.139c.4,0,.8-.006,1.189-.029-.844.077-1.7.113-2.557.113h-44.34v-.084Z" fill="#ff5b19"/></g><g id="change3_36"><path d="M846.249,263.437a7.985,7.985,0,1,1-7.987,7.988A7.99,7.99,0,0,1,846.249,263.437Z"/></g><g id="change1_12"><path d="M844.519,384.139v.084H815.631v-.084Z" fill="#ff5b19"/></g><g id="change3_37"><path d="M844.519,174.376v.083H815.631v-.083Z"/></g><g id="change1_13"><path d="M502.324,1061.962a76.358,76.358,0,0,1-21.661-15.012c-24.077-24-31.916-60.994-26.557-94.568.6-3.747,1.326-7.417,2.195-11.033v-.006c6.863-28.763,22.2-53.583,47.522-78.462-19.562-15.7-32.587-39.3-36.537-64.164-4.508-28.394,2.344-58.073,17.017-82.8a104.6,104.6,0,0,1,23.029-27.091l1.309-1.059c.011-.012.023-.018.035-.03a79.882,79.882,0,0,1,12.062-7.928l.107-.054,3.884-1.891A57.1,57.1,0,0,1,543,672.929c.452-.047.91-.083,1.368-.113-4.425-26.33,1.6-54.463,17.112-76.261a84.879,84.879,0,0,1,7.518-9.13,106.323,106.323,0,0,1,35.275-24.236,113.367,113.367,0,0,1,36.644-9.035.027.027,0,0,0,.03,0A98.13,98.13,0,0,1,651,554.112h.006c0-.047-.006-.089-.006-.136.458.012.91.029,1.368.053h.006a104.246,104.246,0,0,1,.952-22.518c6.471-42.27,39.606-78.563,79.776-89.435a95.751,95.751,0,0,1,13.1-2.593c1.636-.209,3.289-.369,4.949-.482,35.014-1.9,73.561,16.189,87.829,48.646.232-.511.47-1.023.708-1.529q.339.714.66,1.446c0,274.355,4.116,559.3-1.041,838.2-.018,1-.041,2-.059,3-24.582,18.9-53.916,31.017-83.684,33.116a130.17,130.17,0,0,1-14.132.232c-34.514-1.32-84.136-23.606-101.354-50.508-40.879,11.158-85.493,5.175-119.472-19.431a156.007,156.007,0,0,1-41.83-45.809c-15.607-25.842-24.034-56.063-23.124-86.253C456.753,1123.568,473.056,1083.867,502.324,1061.962Z" fill="#ff5b19"/></g><g id="change3_38"><path d="M839.7,486.118c-.238.506-.476,1.018-.708,1.529C824.719,455.19,786.172,437.1,751.158,439,786.011,436.586,824.742,454.15,839.7,486.118Z"/></g><g id="change1_14"><path d="M815.631,384.139v.084H786.749v-.084Z" fill="#ff5b19"/></g><g id="change3_39"><path d="M815.631,174.376v.083H786.749v-.083Z"/></g><g id="change1_15"><path d="M786.749,384.139v.084H738.721A29.883,29.883,0,0,1,708.84,354.77h1.368a29.88,29.88,0,0,0,29.881,29.369Z" fill="#ff5b19"/></g><g id="change3_40"><path d="M786.749,174.376v.083H738.721c-.4,0-.8.006-1.19.03.845-.077,1.7-.113,2.558-.113Z"/></g><g id="change2_123"><path d="M734.01,145.512c-.452.03-.91.042-1.368.042a24.029,24.029,0,1,1,1.368-.042Z" fill="#000000"/></g><g id="change1_16"><path d="M737.531,174.489A29.872,29.872,0,0,0,710.2,204.257v46.137h-1.368V204.341A29.872,29.872,0,0,1,737.531,174.489Z" fill="#ff5b19"/></g><g id="change1_17"><path d="M710.2,354.252c0,.173,0,.345.006.518H708.84c-.006-.143-.006-.292-.006-.435V308.122H710.2Z" fill="#ff5b19"/></g><g id="change1_18"><path d="M710.2,279.258v28.864h-1.368V279.258Z" fill="#ff5b19"/></g><g id="change1_19"><path d="M710.2,250.394v28.864h-1.368V250.394Z" fill="#ff5b19"/></g><g id="change3_41"><path d="M651,553.976c0,.047.006.089.006.136H651a98.13,98.13,0,0,0-10.057.042A98.073,98.073,0,0,1,651,553.976Z"/></g><g id="change2_124"><path d="M625.108,330.884a23.972,23.972,0,1,1-23.975,23.969A23.97,23.97,0,0,1,625.108,330.884Z" fill="#000000"/></g><g id="change3_42"><path d="M603.108,563.189c-.066.023-.137.053-.2.083l-33.98-.077v-.09Z"/></g><g id="change2_125"><path d="M555.443,1427.763a26.569,26.569,0,1,1-26.568,26.568A26.569,26.569,0,0,1,555.443,1427.763Z" fill="#000000"/></g><g id="change3_43"><path d="M568.926 563.105L568.926 563.195 567.558 563.189 567.558 563.099 568.926 563.105z"/></g><g id="change3_44"><path d="M568.926,165.978V563.105l-1.368-.006V166.061a14.977,14.977,0,0,0-14.976-14.976H394.153c.018-.03.036-.054.054-.083H553.95A14.977,14.977,0,0,1,568.926,165.978Z"/></g><g id="change2_126"><path d="M567.558,587.443l.072.066a84.869,84.869,0,0,0-7.518,9.129C544.6,618.437,538.575,646.569,543,672.9a56.183,56.183,0,0,0-18.271,4.449l-.155-114.256,42.984.1Z" fill="#000000"/></g><g id="change2_127"><path d="M567.558 563.099L567.558 563.189 524.574 563.093 524.574 563.004 567.558 563.099z" fill="#000000"/></g><g id="change2_128"><path d="M509.152,223.07H110.068a14.855,14.855,0,0,0-1.63.089,14.972,14.972,0,0,0-14.714,14.97v660.23l-15.2,11.086,15.667,20.8-.47.351,1.249,51.061.071.048A221.414,221.414,0,0,0,72.609,1024.6l-21.132-3.307V165.978A14.979,14.979,0,0,1,64.83,151.091c.089-.006.172-.006.261-.006H552.582a14.977,14.977,0,0,1,14.976,14.976V563.1l-42.984-.1-.446-324.958A14.977,14.977,0,0,0,509.152,223.07Zm-105.75-29.1a10.707,10.707,0,0,0-7.571-18.277h-114.2a10.51,10.51,0,0,0-1.314.083h-.054a10.706,10.706,0,0,0,0,21.412h114.2a10.68,10.68,0,0,0,1.32-.084h.048A10.7,10.7,0,0,0,403.4,193.968ZM239.448,186.4a12.783,12.783,0,0,0-12.788-12.787,13.379,13.379,0,0,0-1.463.083,12.788,12.788,0,0,0,.1,25.575,13.16,13.16,0,0,0,1.469-.083A12.789,12.789,0,0,0,239.448,186.4Z" fill="#000000"/></g><g id="change1_20"><path d="M523.206,563v.09l.155,114.855c.452-.2.91-.4,1.368-.594v.511c-1.314.583-2.605,1.219-3.884,1.891l-.107.054-1.082.523a44.7,44.7,0,0,0-8.506,5.407l-2.474,2c-.012.012-.024.018-.035.03-.441.345-.875.7-1.309,1.059A104.6,104.6,0,0,0,484.3,715.913c-14.673,24.731-21.525,54.41-17.017,82.8,3.95,24.868,16.975,48.468,36.537,64.164-25.325,24.879-40.659,49.7-47.522,78.462-20.413-18.081-64.188-39.969-83.28-47.73,2.1-13.389,7.994-53.714,7.994-53.714l-101-15.8-.047.291-1.321-.208L269.4,879.017a226.909,226.909,0,0,0-71.468,17.593l-35.442-47.5-.928.678-.44-.595L95.092,897.36V238.046a14.973,14.973,0,0,1,13.346-14.887c.089-.006.173-.006.262-.006H507.784a14.977,14.977,0,0,1,14.976,14.976ZM197.112,683.748c.393-.018.791-.041,1.184-.071a35.687,35.687,0,0,0-1.606-71.337c-.963,0-1.921.036-2.867.119a35.684,35.684,0,0,0,1.5,71.337C195.923,683.8,196.518,683.784,197.112,683.748ZM425.593,399.419a30.071,30.071,0,0,0-30.072-30.072c-.868,0-1.73.036-2.581.113a30.069,30.069,0,0,0,1.213,60.114c.869,0,1.731-.036,2.582-.113A30.059,30.059,0,0,0,425.593,399.419ZM297.5,502.992a23.36,23.36,0,0,0-23.356-23.362c-.72,0-1.428.029-2.129.1a23.36,23.36,0,0,0,.761,46.707c.72,0,1.427-.03,2.129-.1A23.357,23.357,0,0,0,297.5,502.992Z" fill="#ff5b19"/></g><g id="change2_129"><path d="M524.574,563.093l.155,114.256c-.458.19-.916.392-1.368.594l-.155-114.855Z" fill="#000000"/></g><g id="change2_130"><path d="M524.574 563.004L524.574 563.093 523.206 563.088 523.206 562.998 524.574 563.004z" fill="#000000"/></g><g id="change2_131"><path d="M524.128,238.046,524.574,563,523.206,563l-.446-324.869a14.977,14.977,0,0,0-14.976-14.976H108.7c-.089,0-.173,0-.262.006a14.855,14.855,0,0,1,1.63-.089H509.152A14.977,14.977,0,0,1,524.128,238.046Z" fill="#000000"/></g><g id="change2_132"><path d="M463.991,1263.916l30.256,41.949-81.656,59.56c-3.176-4.4-23.011-31.862-29.524-40.783-.351.172-.7.339-1.059.5-.107-.142-.208-.285-.309-.422a201.854,201.854,0,0,1-75.619,19.794c-.416.03-.833.054-1.249.077-.452.036-.91.06-1.368.084l-7.7,49.2L196.089,1378.3l7.738-49.5a227.536,227.536,0,0,1-68.874-42.395l-.8.583c-.19-.167-.375-.333-.565-.5L93.831,1315.56l-59.816-81.983,41.538-31.035a234.566,234.566,0,0,1-17.486-76.749l-6.59-1.029-45.529-7.12L21.7,1016.932l28.412,4.443,22.387,3.5c.036-.1.072-.184.113-.279l1.255.2a221.74,221.74,0,0,1,22.548-43.168,236.253,236.253,0,0,1,19.2-24.82l-20.056-26.64L79.9,909.362l15.2-11.086,66.465-48.486,35.288,47.284c.363-.154.719-.309,1.082-.464l.286.381a226.861,226.861,0,0,1,72.55-18.057l9.207-54.541,99.677,15.589s-5.894,40.326-7.994,53.714c19.092,7.762,62.867,29.649,83.28,47.73q-1.3,5.424-2.195,11.039c-5.359,33.575,2.48,70.569,26.557,94.568a76.338,76.338,0,0,0,21.661,15.012c-29.268,21.906-45.571,61.606-46.665,98.149-.91,30.191,7.517,60.411,23.124,86.254C477.415,1246.448,474.055,1255.488,463.991,1263.916Zm-88-140.128a84.784,84.784,0,1,0-77.766,70.379A83.369,83.369,0,0,0,375.989,1123.788Z" fill="#000000"/></g><g id="change2_133"><path d="M394.153,369.431a30.07,30.07,0,0,1,2.582,60.03c-.4.024-.809.029-1.214.029a30.07,30.07,0,0,1-2.581-60.03C393.339,369.437,393.749,369.431,394.153,369.431Z" fill="#000000"/></g><g id="change2_134"><path d="M412.591,1365.425l-.934.684s-22.232-30.785-29.649-40.962c.357-.166.708-.333,1.059-.5C389.58,1333.563,409.415,1361.024,412.591,1365.425Z" fill="#000000"/></g><g id="change2_135"><path d="M406.537,186.4A10.7,10.7,0,0,1,395.831,197.1h-.048a10.7,10.7,0,0,0-1.32-21.328H280.321a10.51,10.51,0,0,1,1.314-.083h114.2A10.706,10.706,0,0,1,406.537,186.4Z" fill="#000000"/></g><g id="change2_136"><path d="M395.521,429.49c.4,0,.815,0,1.214-.029-.851.077-1.713.113-2.582.113a30.069,30.069,0,0,1-1.213-60.114,30.07,30.07,0,0,0,2.581,60.03Z" fill="#000000"/></g><g id="change2_137"><path d="M306.5,1028.53a83.384,83.384,0,0,1-8.279,165.637,83.391,83.391,0,0,0-10.575-166.44A83.671,83.671,0,0,1,306.5,1028.53Z" fill="#000000"/></g><g id="change1_21"><path d="M305.134,1028.613a81.829,81.829,0,1,1-17.486-.886A83.37,83.37,0,0,1,305.134,1028.613Z" fill="#ff5b19"/></g><g id="change2_138"><path d="M295.767,1393.885l-.048.291-101-15.8,7.738-49.5a227.428,227.428,0,0,1-68.309-41.9l.8-.583a227.536,227.536,0,0,0,68.874,42.395l-7.738,49.5Z" fill="#000000"/></g><g id="change2_139"><path d="M272.773,479.713a23.361,23.361,0,0,1,2.129,46.624c-.25.006-.5.012-.761.012a23.36,23.36,0,0,1-2.129-46.624C272.261,479.719,272.517,479.713,272.773,479.713Z" fill="#000000"/></g><g id="change2_140"><path d="M279.97,824.393l-9.207,54.541a226.861,226.861,0,0,0-72.55,18.057l-.286-.381A226.909,226.909,0,0,1,269.4,879.017l9.254-54.832Z" fill="#000000"/></g><g id="change2_141"><path d="M274.141,526.349c.256,0,.511-.006.761-.012-.7.065-1.409.1-2.129.1a23.36,23.36,0,0,1-.761-46.707,23.36,23.36,0,0,0,2.129,46.624Z" fill="#000000"/></g><g id="change2_142"><path d="M226.66,173.609a12.788,12.788,0,0,1,.1,25.575,12.788,12.788,0,0,0-1.469-25.492h-.1A13.379,13.379,0,0,1,226.66,173.609Z" fill="#000000"/></g><g id="change2_143"><path d="M195.322,612.424a35.689,35.689,0,0,1,2.974,71.253q-.8.036-1.606.036a35.685,35.685,0,0,1-2.867-71.254Q194.573,612.425,195.322,612.424Z" fill="#000000"/></g><g id="change2_144"><path d="M197.112,683.748c-.594.036-1.189.048-1.79.048a35.684,35.684,0,0,1-1.5-71.337,35.685,35.685,0,0,0,2.867,71.254q.8,0,1.606-.036C197.9,683.707,197.505,683.73,197.112,683.748Z" fill="#000000"/></g><g id="change2_145"><path d="M161.117 849.195L161.557 849.79 95.092 898.276 95.092 897.36 161.117 849.195z" fill="#000000"/></g><g id="change2_146"><path d="M95.115,931.476l-.921-1.226-15.667-20.8,15.2-11.086,1.368-1v.916L79.9,909.362l15.666,20.805,20.056,26.64a236.253,236.253,0,0,0-19.2,24.82l-.071-.048L96.3,979.86a237.56,237.56,0,0,1,17.95-22.97Z" fill="#000000"/></g><g id="change2_147"><path d="M96.341,981.579l.071.048A221.74,221.74,0,0,0,73.864,1024.8l-1.255-.2A221.414,221.414,0,0,1,95.044,981.71q.624-.928,1.255-1.85Z" fill="#000000"/></g><g id="change2_148"><path d="M93.831,1315.56l-.934.684-60.25-82.584,41.538-31.035a232.8,232.8,0,0,1-11.05-33.688l-.036-.16a12.16,12.16,0,0,0,1.4.077,232.8,232.8,0,0,0,11.05,33.688l-41.538,31.035Z" fill="#000000"/></g><g id="change2_149"><path d="M72.609,1024.6c-.041.1-.077.184-.113.279l-22.387-3.5v-.3l1.368.214Z" fill="#000000"/></g><g id="change2_150"><path d="M64.5,1168.854a12.16,12.16,0,0,1-1.4-.077,234.258,234.258,0,0,1-6.4-42.9l-5.222-.815v-.3l6.59,1.029A234.9,234.9,0,0,0,64.5,1168.854Z" fill="#000000"/></g><g id="change2_151"><path d="M64.83,151.091a14.979,14.979,0,0,0-13.353,14.887v855.314l-1.368-.214V166.061A14.977,14.977,0,0,1,64.83,151.091Z" fill="#000000"/></g><g id="change2_152"><path d="M51.477 1124.764L51.477 1125.061 50.109 1124.847 4.58 1117.728 20.377 1016.724 21.697 1016.932 5.948 1117.644 51.477 1124.764z" fill="#000000"/></g><g id="change3_45"><path d="M64.5,1174.8a17.855,17.855,0,0,1-2.093-.118c-9.917-1.067-16.88-9.954-16.88-21.6v-28.317a5.948,5.948,0,1,1,11.895,0v28.317c0,4.384,1.975,9.315,6.311,9.782a6.361,6.361,0,0,0,.767.043,5.948,5.948,0,1,1,0,11.9Z"/></g><g id="change3_46"><path d="M1625.189,1260.835a5.948,5.948,0,1,1,0-11.9,7.255,7.255,0,0,0,7.244-7.249V927.871a7.253,7.253,0,0,0-7.244-7.244H1209.07a7.256,7.256,0,0,0-7.25,7.244V1241.69a7.258,7.258,0,0,0,7.25,7.249,5.948,5.948,0,1,1,0,11.9,19.167,19.167,0,0,1-19.145-19.145V927.871a19.164,19.164,0,0,1,19.145-19.139h416.119a19.161,19.161,0,0,1,19.139,19.139V1241.69A19.164,19.164,0,0,1,1625.189,1260.835Z"/></g><g id="change3_47"><path d="M1588.313,1220.985H1245.946a19.167,19.167,0,0,1-19.146-19.145V967.721a19.112,19.112,0,0,1,16.967-19.013,18.525,18.525,0,0,1,2.179-.127h342.367a19.161,19.161,0,0,1,19.14,19.14V1201.84a19.2,19.2,0,0,1-18.753,19.137C1588.552,1220.984,1588.422,1220.985,1588.313,1220.985Zm-.567-11.859-.01,0Zm.02,0-.019,0Zm.021,0-.02,0Zm.009,0h0Zm.007,0h0ZM1245.946,960.477a6.639,6.639,0,0,0-.8.046,7.236,7.236,0,0,0-6.452,7.2V1201.84a7.258,7.258,0,0,0,7.25,7.25h342.247l.2-.006a7.261,7.261,0,0,0,7.16-7.244V967.721a7.252,7.252,0,0,0-7.244-7.244Z"/></g><g id="change3_48"><path d="M1478,1175.5c-9.472,0-19.3-4.134-27.372-11.6-7.975-7.379-13.2-16.743-17.27-24.929-7.2-14.481-12.911-29.833-18.434-44.68-8.784-23.609-17.08-45.91-30.947-65.514-5.01-7.081-15.139-18.781-26.635-17.558-7.276.773-14.175,6.447-21.091,17.346-18.724,29.51-25.594,66.4-31.655,98.953a5.947,5.947,0,0,1-11.694-2.177c6.258-33.608,13.351-71.7,33.305-103.15,8.987-14.161,18.76-21.62,29.88-22.8,13.184-1.4,26.189,6.388,37.6,22.517,14.763,20.872,23.721,44.951,32.385,68.237,5.416,14.558,11.016,29.611,17.938,43.534,3.586,7.221,8.135,15.419,14.7,21.491,6.417,5.937,14.107,8.984,21.087,8.356,6.881-.612,14.033-4.957,19.626-11.92,5.456-6.8,9.125-15.288,12.673-23.5l17.95-41.538a5.947,5.947,0,1,1,10.919,4.718l-17.95,41.539c-3.861,8.934-7.854,18.171-14.316,26.224-7.723,9.616-17.611,15.412-27.843,16.322Q1479.435,1175.5,1478,1175.5Z"/></g><g id="change3_49"><path d="M1747.824,1447.593a5.946,5.946,0,0,1-5.138-2.941l-106.927-182.487a2.712,2.712,0,0,0-2.333-1.33H1206.644a2.725,2.725,0,0,0-2.3,1.282l-112.848,182.654a5.948,5.948,0,1,1-10.12-6.252l112.852-182.66a14.513,14.513,0,0,1,12.417-6.92h426.782a14.653,14.653,0,0,1,12.6,7.21l106.929,182.489a5.949,5.949,0,0,1-5.126,8.955Z"/></g><g id="change3_50"><path d="M1692.4,1418.449H1141.856a5.947,5.947,0,0,1-5.06-9.073l20.281-32.838c.032-.053.067-.106.1-.158l61.291-99.2.058-.092.053-.083a5.948,5.948,0,0,1,5-2.73h391.3a5.947,5.947,0,0,1,5.131,2.94l77.511,132.277a5.948,5.948,0,0,1-5.131,8.955Zm-539.878-11.9h529.5l-70.54-120.381H1226.9l-59.653,96.546c-.032.054-.066.106-.1.158Z"/></g><g id="change3_51"><path d="M1708.563,1486.847H1125.69a45.254,45.254,0,0,1-45.2-45.2,5.948,5.948,0,0,1,5.948-5.948h661.383a5.948,5.948,0,0,1,5.948,5.948,45.2,45.2,0,0,1-45.2,45.2Zm-615.648-39.255a33.362,33.362,0,0,0,32.775,27.36h582.873a33.327,33.327,0,0,0,32.781-27.36Z"/></g><g id="change3_52"><path d="M1415.506,1418.449l-.188,0a5.948,5.948,0,0,1-5.76-6.13l1.074-34.507c0-.054,0-.108,0-.162l1.092-35.1c0-.054,0-.108,0-.161l1.038-33.455c0-.054,0-.109,0-.163l.8-25.593a5.948,5.948,0,0,1,5.941-5.762q.094,0,.189,0a5.947,5.947,0,0,1,5.76,6.13l-.8,25.5c0,.054,0,.108,0,.163l-1.038,33.453c0,.055,0,.109,0,.163l-1.091,35.1c0,.055,0,.109,0,.163l-1.076,34.6A5.949,5.949,0,0,1,1415.506,1418.449Z"/></g><g id="change3_53"><path d="M1468,1411.449a5.947,5.947,0,0,1-5.9-5.306q-.779-7.157-1.548-14.309-.736-6.813-1.474-13.628c0-.026-.006-.052-.008-.078s-.005-.053-.008-.079q-1.29-11.894-2.57-23.782l-1.221-11.316q-.008-.065-.012-.129l0-.029q-.906-8.343-1.8-16.683-.906-8.382-1.814-16.766c-.005-.044-.009-.089-.013-.133l0-.03-2.774-25.659a5.948,5.948,0,0,1,11.827-1.278l2.784,25.748.012.129,0,.029q.9,8.343,1.8,16.683.906,8.382,1.814,16.766c.005.044.009.089.013.133l0,.03,1.211,11.23q1.287,11.928,2.579,23.859c0,.027.006.053.008.079s.006.052.008.078q.735,6.775,1.465,13.549.773,7.149,1.547,14.3a5.948,5.948,0,0,1-5.271,6.555A6.179,6.179,0,0,1,1468,1411.449Z"/></g><g id="change3_54"><path d="M1533.776,1414.246a5.95,5.95,0,0,1-5.714-4.308c-2.546-8.867-5.576-18.686-9.535-30.9-.021-.061-.042-.123-.06-.184-2.718-8.385-5.535-16.857-8.515-25.823q-1.518-4.566-3.061-9.216-.028-.081-.054-.162c-2.991-9.039-6.92-21-10.832-33.482-.018-.051-.034-.1-.05-.154-3.084-9.837-5.847-19.012-8.444-28.048a6.173,6.173,0,0,1-.15-.6,5.948,5.948,0,0,1,11.571-2.725l0,.021h0c2.567,8.933,5.3,18.009,8.35,27.741.023.067.045.134.064.2,3.894,12.424,7.809,24.341,10.789,33.345.018.054.036.107.053.161q1.535,4.627,3.045,9.169c2.992,9,5.818,17.5,8.552,25.936.015.044.03.088.044.132,4.006,12.354,7.075,22.3,9.66,31.306a5.954,5.954,0,0,1-5.719,7.591Z"/></g><g id="change3_55"><path d="M1594.355,1414.245a5.946,5.946,0,0,1-5.265-3.173c-5.536-10.494-11.033-21.128-16.337-31.606-.014-.026-.026-.053-.039-.079h0c-5.941-11.721-11.813-23.578-17.453-35.24l-.026-.054c-5.237-10.806-10.574-22.081-15.872-33.526-.028-.055-.051-.1-.079-.163-3.625-7.831-7.3-15.906-10.932-24a5.948,5.948,0,0,1,10.855-4.867c3.594,8.018,7.237,16.017,10.829,23.776.028.055.051.1.079.165,5.283,11.413,10.605,22.655,15.817,33.413l.029.058c5.618,11.617,11.459,23.41,17.369,35.069l.04.082h0c5.273,10.416,10.737,20.987,16.241,31.419a5.95,5.95,0,0,1-5.256,8.724Z"/></g><g id="change3_56"><path d="M1643.745,1415.327a5.946,5.946,0,0,1-5.218-3.085c-5.5-10-11.217-20.85-17.491-33.168-5.362-10.512-11.1-22.053-17.55-35.28l-.034-.07c-4.778-9.8-9.906-20.459-16.14-33.545l-.032-.065c-4.5-9.436-9-18.941-12.874-27.129-.1-.191-.186-.386-.266-.589a5.948,5.948,0,0,1,10.893-4.758c.021.041.042.084.062.126,3.878,8.2,8.391,17.729,12.879,27.141l.032.065c6.252,13.122,11.372,23.764,16.138,33.541l.034.07c6.415,13.162,12.125,24.641,17.457,35.092,6.218,12.208,11.882,22.95,17.317,32.841a5.949,5.949,0,0,1-5.207,8.813Zm-58.937-138.1v0Zm-.007-.011,0,.008Z"/></g><g id="change3_57"><path d="M1366.252,1411.449a6.2,6.2,0,0,1-.65-.035,5.948,5.948,0,0,1-5.271-6.556q.741-6.813,1.475-13.631.732-6.782,1.467-13.561c0-.05.009-.1.014-.149q.973-8.973,1.942-17.949.927-8.574,1.856-17.146c0-.05.009-.1.014-.148l.322-2.979q1.647-15.237,3.3-30.477c0-.05.009-.1.014-.148l2.855-26.426a5.948,5.948,0,0,1,11.827,1.278l-2.847,26.348c0,.05-.008.1-.014.152q-1.659,15.273-3.306,30.551l-.314,2.9q-.006.078-.015.153-.933,8.609-1.863,17.22-.966,8.94-1.935,17.877c0,.05-.009.1-.014.15q-.741,6.813-1.475,13.631t-1.475,13.639A5.95,5.95,0,0,1,1366.252,1411.449Zm8.85-32.541h0Z"/></g><g id="change3_58"><path d="M1300.477,1414.246a5.956,5.956,0,0,1-5.72-7.591c2.444-8.513,5.363-17.995,9.187-29.841h0c.011-.036.023-.072.035-.107,2.845-8.8,5.8-17.68,8.922-27.084l2.7-8.119.015-.045.007-.023c3-9.052,6.941-21.038,10.851-33.472h0l.039-.12c3.269-10.391,6.148-19.933,8.8-29.171l.016-.054a5.948,5.948,0,0,1,11.541,2.86c-.029.135-.068.286-.11.431l-.011.04c-2.687,9.351-5.6,19-8.906,29.512h0l-.039.12c-3.929,12.493-7.883,24.514-10.89,33.593-.009.028-.018.054-.027.08l-2.7,8.12c-3.121,9.391-6.069,18.261-8.9,27.024h0l-.028.085c-3.781,11.712-6.662,21.072-9.067,29.453A5.953,5.953,0,0,1,1300.477,1414.246Zm14.894-34.149v0Zm0-.019,0,.008Zm0-.012,0,.008Zm0-.016,0,.012Zm-11.343-3.515v0Zm11.452-34.649h0Zm22.23-30.072v0Zm-11.128-4.2v0Zm8.8-29.21h0Z"/></g><g id="change3_59"><path d="M1239.9,1414.245a5.949,5.949,0,0,1-5.255-8.724c5.168-9.8,10.248-19.61,15.1-29.168l.014-.027.036-.073c5.769-11.341,11.636-23.152,17.437-35.1l.049-.1c5.381-11.081,10.724-22.338,15.87-33.435.016-.035.033-.07.05-.105l.019-.039c3.908-8.409,7.887-17.134,11.83-25.931a5.947,5.947,0,1,1,10.855,4.863c-3.975,8.872-7.988,17.669-11.929,26.149-.016.035-.032.068-.049.1l-.017.037c-5.165,11.137-10.528,22.435-15.941,33.582-.01.021-.038.078-.049.1-5.816,11.983-11.711,23.852-17.509,35.251l-.013.025c-.013.028-.019.04-.033.068-4.883,9.62-10,19.5-15.2,29.358A5.947,5.947,0,0,1,1239.9,1414.245Z"/></g><g id="change3_60"><path d="M1190.508,1415.327a5.949,5.949,0,0,1-5.206-8.814c4.962-9.026,10.134-18.795,15.811-29.866l.035-.069c5.437-10.618,11.164-22.091,17.507-35.074.016-.033.032-.066.049-.1,4.788-9.8,9.911-20.427,16.122-33.45l.056-.115c4.622-9.682,9.241-19.434,13.708-28.864l.576-1.215c.019-.042.04-.084.061-.126a5.948,5.948,0,0,1,10.892,4.76,6.34,6.34,0,0,1-.262.582l-.516,1.091c-4.477,9.452-9.107,19.226-13.743,28.938l-.054.111c-6.226,13.051-11.362,23.708-16.165,33.537-.016.032-.032.065-.049.1-6.371,13.039-12.126,24.57-17.594,35.248l-.037.072c-5.731,11.176-10.955,21.044-15.974,30.172A5.946,5.946,0,0,1,1190.508,1415.327Z"/></g><g id="change3_61"><path d="M1208.439,1316.66a5.948,5.948,0,0,1-.049-11.895l420.824-3.515h.228a5.948,5.948,0,0,1,0,11.9l-1.177.011-419.775,3.5Z"/></g><g id="change3_62"><path d="M1187.4,1350.27a5.948,5.948,0,0,1-.044-11.895l462.282-3.515h.055a5.948,5.948,0,0,1,.052,11.9l-1.232.012-461.067,3.5Z"/></g><g id="change3_63"><path d="M1160.686,1385.552a5.948,5.948,0,1,1,0-11.895l1.444-.012,504.58-3.5h.042a5.948,5.948,0,0,1,.04,11.9Z"/></g><g id="change3_64"><path d="M890.227,390.087H740.089a35.828,35.828,0,0,1-35.827-35.174c-.006-.22-.008-.44-.008-.661V204.257a35.82,35.82,0,0,1,32.778-35.695c.955-.087,2-.134,3.057-.134H890.227a35.872,35.872,0,0,1,35.834,35.829v150a35.707,35.707,0,0,1-34.354,35.8C891.141,390.083,890.621,390.087,890.227,390.087ZM740.089,180.324c-.707,0-1.366.029-2.014.088a24.063,24.063,0,0,0-21.925,23.845v150c0,.106,0,.212,0,.318l0,.1a24.042,24.042,0,0,0,23.934,23.522H890.227c.277,0,.555,0,.829-.019l.13-.007a23.848,23.848,0,0,0,22.98-23.914V204.257a23.963,23.963,0,0,0-23.939-23.933Z"/></g><g id="change3_65"><path d="M1499.461,663.967a5.923,5.923,0,0,1-3.216-.949c-.218-.14-.441-.276-.664-.411a82.12,82.12,0,0,0-21.058-8.5,5.948,5.948,0,1,1,2.722-11.58,92.745,92.745,0,0,1,24.51,9.917c.324.2.631.386.933.58a5.948,5.948,0,0,1-3.227,10.948Z"/></g><g id="change3_66"><path d="M1422.61,663.652a5.949,5.949,0,0,1-3.189-10.973,75.968,75.968,0,0,1,23.124-9.755A5.948,5.948,0,0,1,1445.3,654.5a64.064,64.064,0,0,0-19.51,8.231A5.924,5.924,0,0,1,1422.61,663.652Z"/></g><g id="change3_67"><path d="M1390.707,708.67a5.953,5.953,0,0,1-5.815-7.225,75.255,75.255,0,0,1,10.306-24.709,5.948,5.948,0,1,1,10.027,6.4A63.566,63.566,0,0,0,1396.51,704,5.95,5.95,0,0,1,1390.707,708.67Z"/></g><g id="change3_68"><path d="M1399.718,762.925a5.942,5.942,0,0,1-5.082-2.85,78.2,78.2,0,0,1-9.751-24.482,5.947,5.947,0,1,1,11.632-2.484,66.384,66.384,0,0,0,8.271,20.768,5.949,5.949,0,0,1-5.07,9.048Z"/></g><g id="change3_69"><path d="M1444.974,795.394a5.918,5.918,0,0,1-1.294-.143,76.228,76.228,0,0,1-25.029-10.486,5.948,5.948,0,1,1,6.468-9.983,64.375,64.375,0,0,0,21.137,8.856,5.949,5.949,0,0,1-1.282,11.756Z"/></g><g id="change3_70"><path d="M1476.6,795.394a5.949,5.949,0,0,1-1.227-11.768,56.946,56.946,0,0,0,19.984-8.361l.08-.053c.242-.156.484-.317.721-.483a5.948,5.948,0,1,1,6.823,9.744c-.344.241-.694.476-1.046.7a68.774,68.774,0,0,1-24.1,10.088A5.965,5.965,0,0,1,1476.6,795.394Z"/></g><g id="change3_71"><path d="M1521.443,763.08a5.949,5.949,0,0,1-5.028-9.115,66.608,66.608,0,0,0,8.612-20.829,5.948,5.948,0,0,1,11.6,2.621,78.482,78.482,0,0,1-10.146,24.54A5.945,5.945,0,0,1,1521.443,763.08Z"/></g><g id="change3_72"><path d="M1530.83,708.587a5.951,5.951,0,0,1-5.8-4.637,65.282,65.282,0,0,0-8.6-20.675,5.948,5.948,0,0,1,10.039-6.381,77.143,77.143,0,0,1,10.167,24.432,5.954,5.954,0,0,1-5.806,7.261Z"/></g><g id="change3_73"><path d="M1476.6,810.892h-31.635a5.948,5.948,0,0,1-5.948-5.947v-14.6a5.948,5.948,0,1,1,11.9,0V799h19.74v-8.523a5.948,5.948,0,1,1,11.895,0v14.471A5.948,5.948,0,0,1,1476.6,810.892Z"/></g><g id="change3_74"><path d="M1410.87,796.766a5.93,5.93,0,0,1-4.206-1.741l-22.37-22.37a5.949,5.949,0,0,1,0-8.411l11.033-11.033a5.948,5.948,0,0,1,8.412,8.411l-6.827,6.827,13.958,13.959,6.73-6.731a5.947,5.947,0,1,1,8.414,8.408l-10.938,10.94A5.932,5.932,0,0,1,1410.87,796.766Z"/></g><g id="change3_75"><path d="M1390.7,740.3h-16.327a5.948,5.948,0,0,1-5.947-5.948V702.722a5.948,5.948,0,0,1,5.947-5.948H1390.7a5.948,5.948,0,1,1,0,11.895h-10.379V728.4H1390.7a5.948,5.948,0,0,1,0,11.9Z"/></g><g id="change3_76"><path d="M1422.6,663.651a5.927,5.927,0,0,1-4.179-1.716l-.476-.47-12.719-12.44a5.947,5.947,0,1,1,8.317-8.5l13.237,12.951a5.948,5.948,0,0,1-4.18,10.179Z"/></g><g id="change3_77"><path d="M1387.026,673.09a5.948,5.948,0,0,1-4.207-10.153l22.364-22.37a5.948,5.948,0,0,1,8.411,8.412l-22.362,22.368A5.93,5.93,0,0,1,1387.026,673.09Z"/></g><g id="change3_78"><path d="M1399.592,685.092a5.927,5.927,0,0,1-4.107-1.646l-12.567-12a5.948,5.948,0,1,1,8.215-8.6l12.568,12a5.948,5.948,0,0,1-4.109,10.249Z"/></g><g id="change3_79"><path d="M1475.759,654.23a5.948,5.948,0,0,1-5.948-5.948V637.451h-19.74v10.486a5.948,5.948,0,1,1-11.895,0V631.5a5.948,5.948,0,0,1,5.947-5.948h31.636a5.948,5.948,0,0,1,5.947,5.948v16.778A5.948,5.948,0,0,1,1475.759,654.23Z"/></g><g id="change3_80"><path d="M1521.978,685.55a5.947,5.947,0,0,1-4.205-10.153l8.283-8.279L1512.4,653.463l-8.35,8.351a5.948,5.948,0,1,1-8.412-8.411l12.558-12.558a5.948,5.948,0,0,1,8.409,0l22.072,22.066a5.947,5.947,0,0,1,0,8.413l-12.488,12.483A5.93,5.93,0,0,1,1521.978,685.55Z"/></g><g id="change3_81"><path d="M1547.2,740.3h-16.285a5.948,5.948,0,0,1,0-11.9h10.337V708.669h-10.337a5.948,5.948,0,1,1,0-11.895H1547.2a5.948,5.948,0,0,1,5.947,5.948v31.629A5.948,5.948,0,0,1,1547.2,740.3Z"/></g><g id="change3_82"><path d="M1510.7,796.766h0a5.949,5.949,0,0,1-4.207-1.747L1495.974,784.5a5.948,5.948,0,0,1,8.413-8.41l6.315,6.316,13.957-13.953-6.321-6.321a5.948,5.948,0,0,1,8.411-8.412l10.528,10.528a5.947,5.947,0,0,1,0,8.412l-22.369,22.363A5.949,5.949,0,0,1,1510.7,796.766Z"/></g><g id="change3_83"><path d="M1462,750.279a31.745,31.745,0,0,1-2.759-63.369q1.261-.12,2.759-.122a31.744,31.744,0,0,1,1.108,63.469C1462.739,750.272,1462.368,750.279,1462,750.279Zm0-51.6c-.613,0-1.163.024-1.679.074A19.849,19.849,0,0,0,1462,738.384c.216,0,.432,0,.644-.013l.043,0a19.849,19.849,0,0,0-.687-39.686Z"/></g><g id="change3_84"><path d="M456.307,947.3a5.948,5.948,0,0,1-.006-11.9h.006a5.948,5.948,0,0,1,0,11.9Z"/></g><g id="change3_85"><path d="M456.3,947.29a5.922,5.922,0,0,1-3.941-1.5c-19.918-17.643-62.959-39.1-81.576-46.673a5.948,5.948,0,0,1,4.481-11.019c19.273,7.836,63.988,30.191,84.983,48.788a5.947,5.947,0,0,1-3.947,10.4Z"/></g><g id="change3_86"><path d="M198.216,902.94a5.948,5.948,0,0,1-2.371-11.405A232.42,232.42,0,0,1,270.3,873a5.948,5.948,0,0,1,.933,11.859,220.545,220.545,0,0,0-70.649,17.584A5.919,5.919,0,0,1,198.216,902.94Z"/></g><g id="change3_87"><path d="M73.862,1030.745a5.952,5.952,0,0,1-5.538-8.112,229.041,229.041,0,0,1,23.149-44.321,243.786,243.786,0,0,1,19.686-25.443,5.948,5.948,0,0,1,8.916,7.875,231.86,231.86,0,0,0-18.724,24.2,217.215,217.215,0,0,0-21.946,42.017A5.951,5.951,0,0,1,73.862,1030.745Z"/></g><g id="change3_88"><path d="M75.556,1208.491a5.949,5.949,0,0,1-5.5-3.672,240.507,240.507,0,0,1-17.93-78.695,5.948,5.948,0,1,1,11.877-.662,228.576,228.576,0,0,0,17.041,74.8,5.951,5.951,0,0,1-5.491,8.227Z"/></g><g id="change3_89"><path d="M203.826,1334.749a5.951,5.951,0,0,1-2.167-.411,232.931,232.931,0,0,1-70.673-43.5,5.948,5.948,0,0,1,7.934-8.864A221.065,221.065,0,0,0,206,1323.261a5.949,5.949,0,0,1-2.17,11.488Z"/></g><g id="change3_90"><path d="M304.826,1350.544a5.948,5.948,0,0,1-.335-11.886c.389-.022.778-.044,1.167-.072l.073,0a196.741,196.741,0,0,0,73.711-18.8l.058-.027c.318-.148.63-.3.942-.449a5.947,5.947,0,1,1,5.249,10.674c-.38.187-.76.368-1.147.548a208.58,208.58,0,0,1-78.08,19.927c-.431.031-.862.056-1.293.08C305.055,1350.541,304.939,1350.544,304.826,1350.544Z"/></g><g id="change3_91"><path d="M465.362,1269.78a5.948,5.948,0,0,1-3.822-10.508c8.6-7.2,11.651-14.936,11.68-15.014a5.948,5.948,0,0,1,11.138,4.178c-.159.43-4.037,10.624-15.18,19.957A5.926,5.926,0,0,1,465.362,1269.78Z"/></g><g id="change3_92"><path d="M297.087,1400.04a5.861,5.861,0,0,1-.924-.072l-1.321-.208-99.672-15.588a5.947,5.947,0,0,1-4.957-6.8l7.738-49.5a5.948,5.948,0,1,1,11.753,1.837l-6.82,43.621L292.13,1387.3l6.825-43.619a5.948,5.948,0,1,1,11.752,1.839l-7.743,49.5a5.947,5.947,0,0,1-5.877,5.028Z"/></g><g id="change3_93"><path d="M94.265,1322.108a5.951,5.951,0,0,1-4.822-2.464l-.434-.6-59.8-81.961a5.946,5.946,0,0,1,1.245-8.27l41.538-31.035a5.948,5.948,0,1,1,7.12,9.529l-36.827,27.515,53.276,73.021,35.895-26.25a5.948,5.948,0,1,1,6.992,9.624l-.8.583-39.87,29.162A5.947,5.947,0,0,1,94.265,1322.108Z"/></g><g id="change3_94"><path d="M58.075,1131.741a5.929,5.929,0,0,1-.925-.072L5.029,1123.52a5.947,5.947,0,0,1-4.957-6.8l15.8-101.043a5.946,5.946,0,0,1,6.789-4.918l52.12,8.155a5.948,5.948,0,0,1-1.839,11.752L26.7,1023.436l-13.957,89.251,46.241,7.229a5.948,5.948,0,0,1-.909,11.825Z"/></g><g id="change3_95"><path d="M198.217,902.939a5.938,5.938,0,0,1-4.761-2.378l-.286-.38-35.452-47.512a5.948,5.948,0,1,1,9.534-7.114l35.718,47.866a5.948,5.948,0,0,1-4.753,9.518Z"/></g><g id="change1_22"><path d="M1004.928,483.751a4.461,4.461,0,0,1-4.461-4.461v-.773l-.208-187.722a4.459,4.459,0,0,1,4.461-4.465h135.964a4.461,4.461,0,0,1,0,8.921h-131.5l.2,184.039A4.46,4.46,0,0,1,1004.928,483.751Z" fill="#ff5b19"/></g><g id="change3_96"><path d="M79.9,915.31a5.948,5.948,0,0,1-3.51-10.753l82.585-60.246a5.947,5.947,0,1,1,7.02,9.6l-.928.679L83.4,914.167A5.92,5.92,0,0,1,79.9,915.31Z"/></g><g id="change3_97"><path d="M115.622,962.755a5.939,5.939,0,0,1-4.757-2.371L75.144,912.94a5.948,5.948,0,0,1,9.5-7.156l35.722,47.445a5.949,5.949,0,0,1-4.747,9.526Z"/></g><g id="change3_98"><path d="M373.029,899.561a5.954,5.954,0,0,1-5.883-6.87c1.591-10.148,5.418-36.151,7.13-47.826l-89.37-13.978-8.279,49.037a5.947,5.947,0,0,1-11.729-1.98l9.249-54.8a5.948,5.948,0,0,1,6.789-4.916l101,15.8a5.948,5.948,0,0,1,4.966,6.736c-.059.4-5.922,40.51-8,53.775A5.949,5.949,0,0,1,373.029,899.561Z"/></g><g id="change3_99"><path d="M413.025,1371.974a5.812,5.812,0,0,1-.946-.077,5.947,5.947,0,0,1-3.891-2.411l-.409-.565c-2.828-3.919-22.992-31.836-29.516-40.772a5.948,5.948,0,1,1,9.608-7.014c5.352,7.332,19.846,27.384,26.478,36.564l72.982-53.236-26.8-37.151a5.948,5.948,0,1,1,9.647-6.959l30.256,41.95a5.948,5.948,0,0,1-1.318,8.284l-82.59,60.244A5.953,5.953,0,0,1,413.025,1371.974Z"/></g><g id="change3_100"><path d="M293.751,1200.235a89.333,89.333,0,1,1,13.668-177.582,89.332,89.332,0,0,1-8.873,177.453h0Q296.155,1200.235,293.751,1200.235Zm4.472-6.068h0Zm-4.714-160.7q-2.729,0-5.437.193A77.435,77.435,0,0,0,281.65,1187.4a77.334,77.334,0,0,0,88.463-64.53,77.423,77.423,0,0,0-64.529-88.463A78.508,78.508,0,0,0,293.509,1033.467Z"/></g><g id="change3_101"><path d="M1094.176,1339.175a125.94,125.94,0,0,1-21.054-1.711,129.918,129.918,0,0,1-40-13.826,132.1,132.1,0,0,1-39.7-32.738,5.947,5.947,0,1,1,9.238-7.493,120.113,120.113,0,0,0,36.1,29.758,118.072,118.072,0,0,0,36.346,12.572c28.493,4.838,62.67-1.763,87.075-16.816a5.948,5.948,0,0,1,6.245,10.125C1147.52,1331.942,1120.063,1339.175,1094.176,1339.175Z"/></g><g id="change3_102"><path d="M839.257,1334.711h-.11a5.947,5.947,0,0,1-5.839-6.053l.06-3c5.851-287.324,6.2-569.255,1.041-837.975a5.955,5.955,0,0,1,.523-2.557c13.128-29.144,44.9-49.569,80.934-52.036a101.821,101.821,0,0,1,19.45.494c27.443,3.373,54.191,18.028,73.383,40.208.264.3.516.591.762.88l.673.8a114.034,114.034,0,0,1,25.495,55.121,107.634,107.634,0,0,1,1.041,23.721c0,.048,0,.1-.006.14a120.219,120.219,0,0,1-20.116,58.538,114.1,114.1,0,0,1-46.712,40.661,5.947,5.947,0,1,1-5-10.795c33.327-15.42,57.406-51.208,59.946-89.081,0-.049,0-.1.007-.141a95.839,95.839,0,0,0-.916-21.2,102.129,102.129,0,0,0-22.869-49.333l-.639-.761c-.188-.221-.4-.47-.623-.72,0-.006-.038-.042-.042-.048-17.289-19.978-41.286-33.167-65.84-36.185a89.83,89.83,0,0,0-17.179-.434c-31.226,2.137-58.677,19.3-70.358,43.867,5.136,268.462,4.777,550.087-1.067,837.062l-.06,2.99A5.947,5.947,0,0,1,839.257,1334.711Z"/></g><g id="change3_103"><path d="M934.429,1368.155c-33.948,0-68.807-12.191-98.736-34.633a5.948,5.948,0,1,1,7.136-9.517c29.306,21.975,63.546,33.392,96.427,32.164,33.127-1.237,68.54-17.3,92.421-41.908a5.947,5.947,0,0,1,8.537,8.283A153.307,153.307,0,0,1,994.2,1354.7a145.883,145.883,0,0,1-54.5,13.36Q937.072,1368.155,934.429,1368.155Z"/></g><g id="change3_104"><path d="M1058.177,760.653a5.948,5.948,0,0,1-1.108-11.791c31.084-5.926,58.787-28.726,70.578-58.087a92,92,0,0,0,5.206-18.355l.033-.194,0,.014c.006-.034.011-.068.017-.1,4.356-25.4-1.491-51.689-16.042-72.134-17.9-25.149-53.2-41.607-85.837-40.034a5.947,5.947,0,1,1-.574-11.881c17.455-.843,36.48,3.017,53.559,10.873,17.741,8.161,32.453,19.968,42.543,34.144,16.366,23,22.955,52.516,18.083,81-.011.07-.023.139-.036.208v-.006c0,.038-.012.076-.018.113a104,104,0,0,1-5.895,20.79,109.078,109.078,0,0,1-79.388,65.339A5.953,5.953,0,0,1,1058.177,760.653Z"/></g><g id="change3_105"><path d="M1124.012,888.243a86.441,86.441,0,0,1-38.415-8.723,5.948,5.948,0,1,1,5.292-10.653c23.28,11.562,53.355,9.659,76.619-4.847a88.124,88.124,0,0,0,23.922-22.187l.066-.086c.105-.136.208-.275.31-.412l.17-.228c.793-1.077,1.6-2.229,2.374-3.384l.045-.066.021-.032a100.384,100.384,0,0,0,15.608-39.84c4.154-26.164-1.617-54.162-16.251-78.838-14.532-24.491-32.231-37.169-55.7-39.895a5.948,5.948,0,0,1,1.373-11.816c27.459,3.19,47.971,17.694,64.554,45.642,16.047,27.058,22.358,57.874,17.769,86.772a112.354,112.354,0,0,1-17.472,44.593l-.025.037-.032.049c-.873,1.306-1.788,2.61-2.719,3.873l-.174.234c-.14.188-.28.376-.424.562a99.918,99.918,0,0,1-27.125,25.115A94.659,94.659,0,0,1,1124.012,888.243Zm75.32-47.27h0Z"/></g><g id="change3_106"><path d="M1233.71,920.627a5.946,5.946,0,0,1-5.914-5.394c-2.6-27.759-14.576-50.515-34.645-65.812a5.948,5.948,0,0,1,6.817-9.743c.1.069.215.148.321.228l.05.038c22.8,17.364,36.385,43.016,39.3,74.182a5.946,5.946,0,0,1-5.367,6.475C1234.083,920.619,1233.9,920.627,1233.71,920.627ZM1193,849.307l.055.043Zm0,0Z"/></g><g id="change3_107"><path d="M746.351,1368.152q-2.576,0-5.137-.1c-34.94-1.337-87.121-23.532-106.139-53.245a5.949,5.949,0,1,1,10.122-6.252c7.427,11.493,22.6,23.343,41.662,32.535,18.581,8.959,38.557,14.453,54.808,15.075a124.854,124.854,0,0,0,13.484-.222c26.819-1.891,54.488-12.588,78.215-30.189l0-.105c3.58-193.615,2.681-392.115,1.811-584.079-.377-83.23-.767-169.282-.771-252.723l-.086-.182c-12.992-27.777-47.783-46.158-82.753-43.735-1.552.106-3.1.257-4.609.449a90.036,90.036,0,0,0-12.3,2.433c-38.395,10.391-69.421,45.178-75.456,84.595a98.523,98.523,0,0,0-.9,21.233c2.437,37.952,25.938,73.811,58.48,89.234a5.947,5.947,0,1,1-5.094,10.749c-18.142-8.6-33.925-22.674-45.643-40.7a122.083,122.083,0,0,1-19.613-58.512,110.308,110.308,0,0,1,1.008-23.8c3.332-21.769,13.259-42.367,28.7-59.567,15.085-16.8,34.759-29.125,55.4-34.71a101.951,101.951,0,0,1,13.912-2.753c1.732-.221,3.513-.394,5.288-.515a106.571,106.571,0,0,1,54.831,11.3c18.149,9.224,31.807,22.792,39.5,39.235.236.5.48,1.032.718,1.574a5.949,5.949,0,0,1,.5,2.392c0,83.817.392,170.31.771,253.956.87,192.032,1.77,390.6-1.813,584.35l-.054,3a5.94,5.94,0,0,1-2.5,4.739c-26.017,19.948-56.806,32.094-86.72,34.2C752.793,1368.039,749.567,1368.152,746.351,1368.152Z"/></g><g id="change3_108"><path d="M625.008,760.653a5.964,5.964,0,0,1-1.121-.106A109.094,109.094,0,0,1,544.5,695.208a103.656,103.656,0,0,1-6-21.406c-4.771-28.386,1.837-57.8,18.131-80.7a91,91,0,0,1,8.044-9.77,112.477,112.477,0,0,1,37.244-25.612,119.909,119.909,0,0,1,38.582-9.5c.054,0,.109-.007.164-.009a104.042,104.042,0,0,1,10.539-.18c.459.011.964.031,1.474.058a5.948,5.948,0,1,1-.618,11.879c-.4-.021-.8-.037-1.209-.048a92.919,92.919,0,0,0-9.5.167h0l-.144.008a107.905,107.905,0,0,0-34.586,8.556,100.485,100.485,0,0,0-33.3,22.853,79.19,79.19,0,0,0-7,8.5c-14.479,20.348-20.344,46.528-16.092,71.828a91.722,91.722,0,0,0,5.3,18.944c11.8,29.362,39.5,52.162,70.577,58.087a5.948,5.948,0,0,1-1.107,11.791Z"/></g><g id="change3_109"><path d="M559.173,888.244a94.625,94.625,0,0,1-49.785-14.131,96.855,96.855,0,0,1-9.289-6.6c-20.326-16.308-34.427-41.046-38.686-67.868-4.59-28.9,1.723-59.718,17.774-86.772a110.127,110.127,0,0,1,24.365-28.649c.474-.389.944-.774,1.419-1.146a5.947,5.947,0,1,1,7.339,9.361c-.4.317-.8.645-1.2.974a98.1,98.1,0,0,0-21.688,25.528c-14.64,24.674-20.413,52.672-16.259,78.838,3.8,23.939,16.335,45.975,34.385,60.458a84.813,84.813,0,0,0,8.142,5.78,82.636,82.636,0,0,0,43.457,12.361,74.593,74.593,0,0,0,33.152-7.516,5.947,5.947,0,1,1,5.291,10.653A86.457,86.457,0,0,1,559.173,888.244Z"/></g><g id="change3_110"><path d="M508.68,693.681a5.947,5.947,0,0,1-3.692-10.613,85.853,85.853,0,0,1,12.963-8.518,5.948,5.948,0,0,1,5.574,10.509,74,74,0,0,0-11.16,7.34A5.924,5.924,0,0,1,508.68,693.681Z"/></g><g id="change3_111"><path d="M520.851,685.7a5.948,5.948,0,0,1-2.773-11.213c1.5-.791,2.891-1.466,4.24-2.064a63.047,63.047,0,0,1,20.105-5.413c.515-.054,1.036-.1,1.558-.129a5.948,5.948,0,0,1,.775,11.87c-.38.025-.758.054-1.132.094l-.089.008a51.236,51.236,0,0,0-16.368,4.432c-1.132.5-2.286,1.064-3.554,1.731A5.924,5.924,0,0,1,520.851,685.7Z"/></g><g id="change3_112"><path d="M535.618,1075.409a85.181,85.181,0,0,1-35.8-8.055,81.868,81.868,0,0,1-23.351-16.192c-12.157-12.118-21.1-28.163-25.871-46.4a130.907,130.907,0,0,1-2.359-53.317c.624-3.89,1.382-7.711,2.255-11.363.009-.039.018-.079.028-.119,7.028-29.453,22.642-55.294,49.139-81.324a5.948,5.948,0,1,1,8.336,8.486c-24.8,24.36-39.377,48.348-45.877,75.484l-.03.13c-.815,3.392-1.523,6.954-2.105,10.585-5.488,34.382,4.046,68.645,24.882,89.415a70.023,70.023,0,0,0,19.975,13.833c22.467,10.46,48.076,8.939,65.243-3.877a5.947,5.947,0,1,1,7.116,9.531,68.209,68.209,0,0,1-37.882,13.1Q537.469,1075.409,535.618,1075.409Z"/></g><g id="change3_113"><path d="M599.962,1322.936a151.088,151.088,0,0,1-23.111-1.758,138.165,138.165,0,0,1-59.726-24.187,163.009,163.009,0,0,1-43.435-47.554c-16.383-27.129-24.9-58.916-23.976-89.5a148.756,148.756,0,0,1,13.3-56.856c8.673-18.987,21.012-34.834,35.689-45.835a5.948,5.948,0,0,1,7.626,9.116c-.14.127-.292.253-.443.366-25.777,19.293-43.16,56.019-44.285,93.566-.853,28.33,7.056,57.806,22.271,83a151,151,0,0,0,40.226,44.066c31.239,22.621,74.011,29.542,114.418,18.512a147.275,147.275,0,0,0,24.923-9.294,5.948,5.948,0,1,1,5.151,10.722,158.706,158.706,0,0,1-68.63,15.641Z"/></g><g id="change3_114"><path d="M633.353,703.228a5.95,5.95,0,0,1-5.258-8.721c4.987-9.466,14.386-16.375,25.788-18.956s22.862-.391,31.439,6a5.948,5.948,0,1,1-7.112,9.535c-5.786-4.314-13.694-5.749-21.7-3.937s-14.525,6.512-17.889,12.9A5.948,5.948,0,0,1,633.353,703.228Z"/></g><g id="change3_115"><path d="M762.9,724.234a5.947,5.947,0,0,1-4.522-9.807c26.082-30.585,30.512-78.1,10.534-112.983a5.948,5.948,0,0,1,10.323-5.912c10.875,18.989,15.683,42.116,13.538,65.121s-11.145,44.843-25.344,61.493A5.937,5.937,0,0,1,762.9,724.234Z"/></g><g id="change3_116"><path d="M786.587,809.139a5.95,5.95,0,0,1-5.834-4.827c-2.045-10.641-13.738-17.089-23.129-19.378-6.4-1.557-13.035-2.054-20.058-2.58a164.14,164.14,0,0,1-17.971-2.021c-17.476-3.266-30.149-12.359-34.771-24.947a5.948,5.948,0,1,1,11.167-4.1c3.093,8.426,12.734,14.913,25.789,17.353a152.769,152.769,0,0,0,16.674,1.852c7.194.539,14.632,1.1,21.984,2.884,13.433,3.274,28.89,12.53,32,28.691a5.953,5.953,0,0,1-5.848,7.072Z"/></g><g id="change3_117"><path d="M589.785,850.588a5.954,5.954,0,0,1-5.833-7.145c4.784-23.282,24.481-42.376,47.9-46.435s48.388,7.31,60.718,27.631a5.948,5.948,0,0,1-10.171,6.17c-9.7-15.98-30.105-25.266-48.518-22.08s-34.518,18.8-38.279,37.107A5.95,5.95,0,0,1,589.785,850.588Z"/></g><g id="change3_118"><path d="M708.335,1010.5a5.949,5.949,0,0,1-2.15-11.5c26.908-10.426,43.774-41.839,37.6-70.025s-34.625-49.669-63.435-47.891a5.947,5.947,0,1,1-.733-11.872c34.417-2.125,68.411,23.543,75.788,57.217s-12.773,71.207-44.92,83.663A5.925,5.925,0,0,1,708.335,1010.5Z"/></g><g id="change3_119"><path d="M643.717,1059.335a5.938,5.938,0,0,1-2.21-.428c-21.918-8.78-38.373-30.448-40.945-53.918s8.794-48.19,28.285-61.514a5.948,5.948,0,1,1,6.713,9.82c-15.968,10.916-25.281,31.169-23.174,50.4s15.588,36.978,33.544,44.171a5.949,5.949,0,0,1-2.213,11.471Z"/></g><g id="change3_120"><path d="M533.666,993.409a5.935,5.935,0,0,1-4.579-2.147,69.044,69.044,0,0,1-9.032-72.246,5.948,5.948,0,1,1,10.741,5.113c-9.011,18.928-5.951,43.409,7.442,59.532a5.948,5.948,0,0,1-4.572,9.748Z"/></g><g id="change3_121"><path d="M688.972,1188.745a5.949,5.949,0,0,1-5.479-3.628c-3.094-7.3-3.3-15.6-.6-24.011a47.3,47.3,0,0,1,12.839-19.919c11.19-10.323,25.749-15.418,38.593-19.914,11.751-4.106,25.067-8.76,34.448-17.429a44.561,44.561,0,0,0,.018-65.474,5.948,5.948,0,1,1,8.073-8.736,56.456,56.456,0,0,1-.02,82.948c-11.195,10.345-25.75,15.432-38.592,19.92-11.752,4.113-25.075,8.776-34.454,17.427-7.72,7.126-13.94,19.724-9.352,30.544a5.952,5.952,0,0,1-5.472,8.272Z"/></g><g id="change3_122"><path d="M558.369,1193.007a5.947,5.947,0,0,1-5.947-5.915c-.16-29.142,23.184-56.166,52.037-60.242a5.947,5.947,0,0,1,1.663,11.778c-22.786,3.219-41.931,25.383-41.8,48.4a5.948,5.948,0,0,1-5.915,5.98Z"/></g><g id="change3_123"><path d="M664.155,1265.862a5.951,5.951,0,0,1-5.819-4.746,46.452,46.452,0,0,0-36.257-35.495,5.948,5.948,0,1,1,2.157-11.7c22.341,4.121,41.155,22.538,45.749,44.787a5.952,5.952,0,0,1-5.83,7.152Z"/></g><g id="change3_124"><path d="M726.36,1294.554a5.948,5.948,0,0,1-5.347-3.335c-5.46-11.162-5.879-24.815-1.149-37.46s14.006-22.672,25.451-27.51,25.1-4.5,37.464.914,21.869,15.233,26.072,26.926a5.948,5.948,0,1,1-11.2,4.023c-3.1-8.631-10.265-15.94-19.651-20.053s-19.611-4.423-28.059-.853-15.35,11.123-18.94,20.721-3.338,19.826.692,28.064a5.951,5.951,0,0,1-5.338,8.563Z"/></g><g id="change3_125"><path d="M926.268,1214.205a5.947,5.947,0,0,1-4.359-9.992c8.96-9.66,7.747-25.833,5.689-38.843l-.332-2.079c-2.415-15.1-5.152-32.212,2.943-46.817,4.046-7.294,10.062-12.573,15.881-17.678a89.855,89.855,0,0,0,10.164-9.88c7.718-9.331,10.6-22.3,7.354-33.053-3.347-11.071-13.634-19.8-24.459-20.766-11.106-.984-22.419,6.523-25.205,16.732a5.948,5.948,0,0,1-11.476-3.132c4.3-15.76,20.866-26.943,37.731-25.449,15.717,1.4,30.025,13.392,34.8,29.171,4.439,14.683.77,31.572-9.575,44.078a100.034,100.034,0,0,1-11.485,11.241c-5.287,4.638-10.281,9.02-13.323,14.5-6.1,11.013-3.814,25.327-1.6,39.171l.335,2.1c2.478,15.67,3.728,35.376-8.717,48.792A5.93,5.93,0,0,1,926.268,1214.205Z"/></g><g id="change3_126"><path d="M1147.642,1077.531q-2.546,0-5.091-.194a68.575,68.575,0,0,1-46.8-23.9,5.947,5.947,0,1,1,9.077-7.687,56.239,56.239,0,0,0,79.8,6.1,5.948,5.948,0,1,1,7.8,8.979A68.64,68.64,0,0,1,1147.642,1077.531Z"/></g><g id="change3_127"><path d="M953.021,1305.449a5.949,5.949,0,0,1-5.873-5.056c-4.857-32.031,15.244-65.639,45.762-76.511,9.3-3.314,18.969-4.543,28.316-5.731,7.881-1,15.325-1.949,22.481-4.045,14.342-4.2,28.01-16.391,26.056-29.513a5.948,5.948,0,1,1,11.766-1.752c3.019,20.276-15.511,37.123-34.479,42.681-8.062,2.361-16.329,3.413-24.324,4.429-9.12,1.16-17.734,2.255-25.825,5.137-24.914,8.875-41.957,37.372-37.993,63.522a5.947,5.947,0,0,1-4.988,6.772A6.105,6.105,0,0,1,953.021,1305.449Z"/></g><g id="change3_128"><path d="M1004.308,1173.024a5.948,5.948,0,0,1-5.865-5.009c-3.115-19.463,7.4-40.036,25-48.918s40.4-5.113,54.2,8.953a5.947,5.947,0,1,1-8.489,8.332c-10.112-10.3-27.461-13.169-40.355-6.665s-20.891,22.162-18.61,36.419a5.955,5.955,0,0,1-5.88,6.888Z"/></g><g id="change3_129"><path d="M1149.868,1219.024a5.95,5.95,0,0,1-5.551-3.81c-9.026-23.428-17.056-48.2-7.7-70.9a5.948,5.948,0,0,1,11,4.533c-7.7,18.67-.7,40.023,7.8,62.09a5.95,5.95,0,0,1-5.549,8.088Z"/></g><g id="change3_130"><path d="M968.094,947.865c-15.655,0-31.378-8.364-39.105-22.182-10.223-18.276-5-43.475,11.654-56.171a5.947,5.947,0,1,1,7.213,9.458c-11.919,9.089-15.8,27.822-8.485,40.906s25.314,19.579,39.3,14.181a5.948,5.948,0,0,1,4.283,11.1A41.244,41.244,0,0,1,968.094,947.865Z"/></g><g id="change3_131"><path d="M990.614,832.744a5.948,5.948,0,0,1-3.942-10.4c7.867-6.956,12.624-17.651,13.05-29.345s-3.539-22.7-10.878-30.208a5.948,5.948,0,1,1,8.507-8.314c9.605,9.826,14.8,24.025,14.258,38.955s-6.761,28.72-17.057,37.824A5.928,5.928,0,0,1,990.614,832.744Z"/></g><g id="change3_132"><path d="M1033.223,1025.142a49.88,49.88,0,0,1-43.5-26.258,5.947,5.947,0,1,1,10.54-5.513,37.06,37.06,0,0,0,66.95-2.7c.557-1.313,1.056-2.694,1.584-4.155a52.168,52.168,0,0,1,3.849-8.857c3.633-6.235,9.369-10.106,15.343-10.353a5.948,5.948,0,1,1,.493,11.885c-1.843.076-4.025,1.826-5.558,4.457a42.637,42.637,0,0,0-2.939,6.907c-.559,1.549-1.138,3.151-1.823,4.765a49.818,49.818,0,0,1-43.091,29.787C1034.453,1025.13,1033.837,1025.142,1033.223,1025.142Z"/></g><g id="change3_133"><path d="M1044.263,923.5a5.948,5.948,0,0,1-5.943-5.8c-.274-10.9-8.385-21.383-18.869-24.383s-22.912,1.614-28.9,10.723a5.947,5.947,0,1,1-9.939-6.535,37.926,37.926,0,0,1,69.6,19.9,5.949,5.949,0,0,1-5.8,6.1Z"/></g><g id="change3_134"><path d="M945.344,729.451a5.926,5.926,0,0,1-3.208-.943,83.023,83.023,0,0,1-13.017-129.4,5.948,5.948,0,0,1,8.291,8.53A71.127,71.127,0,0,0,948.563,718.5a5.948,5.948,0,0,1-3.219,10.953Z"/></g><g id="change3_135"><path d="M934.08,532.9a5.93,5.93,0,0,1-4.331-1.87c-6.206-6.589-17.835-7.393-24.887-1.721a5.948,5.948,0,1,1-7.455-9.269c11.821-9.509,30.6-8.211,41,2.834A5.947,5.947,0,0,1,934.08,532.9Z"/></g><g id="change3_136"><path d="M951.91,819.232a5.941,5.941,0,0,1-4.977-2.684c-3.222-4.907-10.509-6.46-16.054-6.9-2.035-.161-4.094-.233-6.275-.309-6.049-.211-12.3-.43-18.5-2.616-9.607-3.391-18.585-13.073-16.306-24.34a5.948,5.948,0,0,1,11.66,2.359c-.873,4.314,3.744,9.048,8.6,10.764,4.478,1.578,9.568,1.757,14.958,1.945,2.214.077,4.5.157,6.8.339,11.75.931,20.415,5.159,25.057,12.228a5.949,5.949,0,0,1-4.966,9.214Z"/></g><g id="change3_137"><path d="M1047.983,690.713a5.947,5.947,0,0,1-5.947-5.941,36.322,36.322,0,0,1,19.352-31.68,5.948,5.948,0,0,1,5.415,10.591,24.165,24.165,0,0,0-12.872,21.076,5.948,5.948,0,0,1-5.941,5.954Z"/></g><g id="change3_138"><path d="M752.958,539.9a38.834,38.834,0,0,1-25.649-9.346,5.947,5.947,0,0,1,7.895-8.9c10.09,8.954,27.3,8.442,36.834-1.094a5.948,5.948,0,0,1,8.414,8.409,38.96,38.96,0,0,1-26.271,10.91C753.774,539.893,753.365,539.9,752.958,539.9Z"/></g><g id="change3_139"><path d="M1083.163,838.651a5.948,5.948,0,0,1-2.743-11.228,89.626,89.626,0,0,0,43.836-52.039,5.948,5.948,0,1,1,11.337,3.605,101.606,101.606,0,0,1-49.7,58.993A5.92,5.92,0,0,1,1083.163,838.651Z"/></g><g id="change3_140"><path d="M1192.25,993.541a5.945,5.945,0,0,1-5.156-2.975,72.614,72.614,0,0,0-31.505-29.038,5.948,5.948,0,1,1,5.091-10.751,84.614,84.614,0,0,1,36.715,33.841,5.949,5.949,0,0,1-5.145,8.923Z"/></g><g id="change3_141"><path d="M523.042,797.334q-3.657,0-7.306-.289a5.948,5.948,0,1,1,.941-11.858,83.134,83.134,0,0,0,49.173-11.628A5.948,5.948,0,1,1,572,783.74,95.216,95.216,0,0,1,523.042,797.334Z"/></g><g id="change3_142"><path d="M51.477,1027.24a5.948,5.948,0,0,1-5.947-5.948V165.978a20.929,20.929,0,0,1,20.929-20.924H553.95a20.948,20.948,0,0,1,20.924,20.924V587.36a5.948,5.948,0,1,1-11.895,0V165.978a9.039,9.039,0,0,0-9.029-9.029H66.459a8.792,8.792,0,0,0-.971.053,9.008,9.008,0,0,0-8.063,8.976v855.314A5.948,5.948,0,0,1,51.477,1027.24Z"/></g><g id="change3_143"><path d="M359.729,787.97h-.047l-163.038-1.261a5.948,5.948,0,0,1-5.9-5.974l.422-97.012a5.962,5.962,0,0,1,5.948-5.94h.012a5.932,5.932,0,0,1,5.935,5.93v.061l-.4,91.085,151.3,1.171,2.761-90.174a5.922,5.922,0,0,1,6.059-5.764l142.5,2.741,2.137-1.725a50.726,50.726,0,0,1,9.637-6.126l1.135-.55.055-.028.536-.261L518.627,563l-.447-324.95a5.947,5.947,0,0,1,5.94-5.955h.008a5.948,5.948,0,0,1,5.948,5.939l.446,325.055.154,114.767a5.946,5.946,0,0,1-3.343,5.347l-5.087,2.475a38.816,38.816,0,0,0-7.359,4.68l-2.443,1.973-.063.052-1.309,1.059a5.906,5.906,0,0,1-3.855,1.322L368.431,692.1,365.673,782.2A5.948,5.948,0,0,1,359.729,787.97Zm165-110.11h0Z"/></g><g id="change3_144"><path d="M196.69,689.66a41.632,41.632,0,0,1-3.337-83.13c1.02-.09,2.159-.137,3.337-.137a41.634,41.634,0,0,1,1.87,83.226h0C197.94,689.646,197.311,689.66,196.69,689.66Zm0-71.372c-.832,0-1.621.032-2.346.1a29.737,29.737,0,0,0,2.346,59.381q.671,0,1.341-.03h0a29.739,29.739,0,0,0-1.343-59.447Z"/></g><g id="change3_145"><path d="M524.128,243.994a5.949,5.949,0,0,1-5.948-5.948,9.038,9.038,0,0,0-9.028-9.028,5.948,5.948,0,1,1,0-11.9,20.948,20.948,0,0,1,20.924,20.924A5.948,5.948,0,0,1,524.128,243.994Z"/></g><g id="change3_146"><path d="M509.747,229.018H110.068a5.948,5.948,0,1,1,0-11.9H509.747a5.948,5.948,0,1,1,0,11.9Z"/></g><g id="change3_147"><path d="M95.092,243.994a5.948,5.948,0,0,1-5.948-5.948,20.875,20.875,0,0,1,18.656-20.8,20.606,20.606,0,0,1,2.268-.124,5.948,5.948,0,0,1,0,11.9,8.721,8.721,0,0,0-.976.053,9,9,0,0,0-8.053,8.975A5.948,5.948,0,0,1,95.092,243.994Z"/></g><g id="change3_148"><path d="M95.092,904.223a5.947,5.947,0,0,1-5.948-5.947V238.046a5.948,5.948,0,0,1,11.895,0v660.23A5.947,5.947,0,0,1,95.092,904.223Z"/></g><g id="change3_149"><path d="M395.831,203.05h-114.2a16.654,16.654,0,0,1,0-33.307h114.2a16.654,16.654,0,1,1,0,33.307Zm-114.2-21.412a4.645,4.645,0,0,0-.578.038,4.757,4.757,0,0,0,.578,9.479h114.2a4.759,4.759,0,0,0,0-9.517Z"/></g><g id="change3_150"><path d="M226.762,205.132h-.1a18.736,18.736,0,0,1-2.137-37.349,19.173,19.173,0,0,1,2.137-.122,18.736,18.736,0,0,1,.146,37.471Zm-.1-25.575a7.367,7.367,0,0,0-.808.046,6.84,6.84,0,0,0,.808,13.633h.074a6.84,6.84,0,0,0-.074-13.679Z"/></g><g id="change3_151"><path d="M96.338,987.527a5.947,5.947,0,0,1-5.943-5.805l-1.249-51.056a5.948,5.948,0,0,1,11.892-.3l1.248,51.066a5.948,5.948,0,0,1-5.8,6.089Z"/></g><g id="change3_152"><path d="M965.616,1470.533l-.161,0-67.607-1.8a5.947,5.947,0,0,1-5.789-5.893l-.9-102.77a5.948,5.948,0,0,1,11.9-.105l.853,97.03,55.96,1.492,1.609-49.078a5.947,5.947,0,0,1,5.653-5.746l36.966-1.808a5.947,5.947,0,0,1,.568,11.881l-.874.042-30.6,1.5-1.623,49.509A5.947,5.947,0,0,1,965.616,1470.533Z"/></g><g id="change3_153"><path d="M751.919,1460.2H583.189a5.948,5.948,0,1,1,0-11.9H746l.356-86.117a5.948,5.948,0,0,1,5.947-5.923h.025a5.947,5.947,0,0,1,5.923,5.972l-.38,92.04A5.949,5.949,0,0,1,751.919,1460.2Z"/></g><g id="change3_154"><path d="M555.443,1486.847a32.516,32.516,0,1,1,32.522-32.516A32.552,32.552,0,0,1,555.443,1486.847Zm0-53.136a20.621,20.621,0,1,0,20.626,20.62A20.644,20.644,0,0,0,555.443,1433.711Z"/></g><g id="change3_155"><path d="M1638.379,1017.027a5.948,5.948,0,0,1-.041-11.9l46.768-.333V895.254a5.948,5.948,0,0,1,11.895,0v115.451a5.947,5.947,0,0,1-5.9,5.947l-52.673.375Z"/></g><g id="change3_156"><path d="M1691.137,900.03a32.519,32.519,0,1,1,32.516-32.522A32.555,32.555,0,0,1,1691.137,900.03Zm0-53.142a20.624,20.624,0,1,0,20.62,20.62A20.643,20.643,0,0,0,1691.137,846.888Z"/></g><g id="change3_157"><path d="M1031.437,1440.55a32.518,32.518,0,0,1-2.81-64.915c.944-.081,1.891-.122,2.81-.122a32.518,32.518,0,0,1,1.154,65.015C1032.209,1440.543,1031.826,1440.55,1031.437,1440.55Zm0-53.142c-.58,0-1.182.027-1.792.079a20.623,20.623,0,0,0,1.792,41.168c.236,0,.467,0,.7-.013l.027,0a20.622,20.622,0,0,0-.727-41.232Z"/></g><g id="change1_23"><path d="M1501.507,906.466h-.019a4.461,4.461,0,0,1-4.442-4.479l.226-56.2-173.375-.226-118-.16a4.461,4.461,0,0,1,.006-8.922h.006l118,.161,177.847.232a4.461,4.461,0,0,1,4.455,4.478l-.244,60.673A4.461,4.461,0,0,1,1501.507,906.466Z" fill="#ff5b19"/></g><g id="change1_24"><path d="M1074.291,295.251h-.048a4.461,4.461,0,0,1-4.414-4.507l1.5-143.5-87.34-1.675a4.461,4.461,0,1,1,.171-8.92l91.761,1.76a4.46,4.46,0,0,1,4.375,4.507l-1.547,147.925A4.461,4.461,0,0,1,1074.291,295.251Z" fill="#ff5b19"/></g><g id="change2_153"><path d="M1618.111,724.841a32.306,32.306,0,0,1-2.776-64.493c.847-.081,1.774-.123,2.776-.123a32.307,32.307,0,0,1,1.12,64.594C1618.863,724.833,1618.487,724.841,1618.111,724.841Zm0-52.72c-.623,0-1.182.024-1.71.074a20.411,20.411,0,0,0,1.71,40.751c.226,0,.451,0,.672-.014h.032a20.411,20.411,0,0,0-.7-40.81Z" fill="#000000"/></g><g id="change1_25"><path d="M1323.9,845.561a4.461,4.461,0,0,1-4.46-4.426l-1.808-235.749a4.461,4.461,0,0,1,4.426-4.5h.035a4.461,4.461,0,0,1,4.46,4.427l1.809,235.748a4.462,4.462,0,0,1-4.427,4.5Z" fill="#ff5b19"/></g><g id="change1_26"><path d="M1618.028,669.105h-.005a4.46,4.46,0,0,1-4.456-4.465l.078-77.768H1358.934a4.461,4.461,0,0,1,0-8.921h259.177a4.462,4.462,0,0,1,4.461,4.465l-.084,82.233A4.46,4.46,0,0,1,1618.028,669.105Z" fill="#ff5b19"/></g><g id="change1_27"><path d="M1322.1,661.29h-67.6a4.461,4.461,0,0,1,0-8.922h67.6a4.461,4.461,0,0,1,0,8.922Z" fill="#ff5b19"/></g><g id="change2_154"><path d="M1225.242,685.973A29.144,29.144,0,0,1,1222.6,627.8c.835-.079,1.731-.12,2.639-.12a29.144,29.144,0,0,1,.922,58.273h-.036C1225.835,685.966,1225.535,685.973,1225.242,685.973Zm.738-5.96h0Zm-.738-40.432c-.538,0-1.06.023-1.55.069a17.248,17.248,0,0,0,1.55,34.427c.188,0,.381,0,.57-.009a17.248,17.248,0,0,0-.57-34.487Z" fill="#000000"/></g><g id="change1_28"><path d="M737.566 442.171L733.371 442.081 728.646 442.088 728.653 441.708 729.55 384.07 738.47 384.209 737.566 442.171z" fill="#ff5b19"/></g><g id="change1_29"><path d="M738.471 174.376L729.549 174.376 729.549 145.512 738.471 145.47 738.471 174.376z" fill="#ff5b19"/></g><g id="change1_30"><path d="M650.445 350.309H710.202V359.23100000000005H650.445z" fill="#ff5b19"/></g><g id="change3_158"><path d="M776.027,330.8a5.947,5.947,0,0,1-5.94-5.739c-.705-20.088-1.5-42.856,7.738-63.193,1.588-3.486,4.208-8.57,8.627-12.5a20.766,20.766,0,0,1,16.534-5.492c8.974,1.256,16.079,9.162,19.49,21.689,5.409,19.859,3.8,41.035,2.374,59.719a5.947,5.947,0,1,1-11.86-.9c1.415-18.589,2.878-37.811-1.991-55.689-.776-2.85-3.766-12.209-9.664-13.035a9.246,9.246,0,0,0-6.974,2.6c-2.084,1.855-3.9,4.57-5.709,8.545-8.084,17.787-7.336,39.071-6.677,57.849a5.949,5.949,0,0,1-5.736,6.153C776.169,330.8,776.1,330.8,776.027,330.8Z"/></g><g id="change3_159"><path d="M817.184,302.15h-.059l-39.571-.392a5.948,5.948,0,0,1,.058-11.895h.06l39.57.392a5.948,5.948,0,0,1-.058,11.895Z"/></g><g id="change3_160"><path d="M847.274,330.4h-.064a5.949,5.949,0,0,1-5.885-6.011q.177-16.815.345-33.642l5.948.041,5.947.079q-.171,16.827-.345,33.648A5.949,5.949,0,0,1,847.274,330.4Z"/></g><g id="change3_161"><path d="M604.273,569.136h-1.165l-79.927-.19-127.673-.291a5.948,5.948,0,0,1-5.934-5.993l.975-130.242a5.947,5.947,0,0,1,5.947-5.9h.045a5.947,5.947,0,0,1,5.9,5.992l-.93,124.264,167.437.385,35.322.083a5.948,5.948,0,1,1,0,11.895Z"/></g><g id="change3_162"><path d="M395.522,435.438a36.018,36.018,0,0,1-3.085-71.9c.969-.088,2.018-.134,3.085-.134a36.017,36.017,0,0,1,1.5,72C396.58,435.427,396.112,435.438,395.522,435.438Zm0-60.143c-.709,0-1.4.03-2.044.089a24.123,24.123,0,0,0,2.044,48.159c.285,0,.576,0,.858-.019l.121-.006a24.121,24.121,0,0,0-.979-48.223Z"/></g><g id="change3_163"><path d="M395.522,509.029h-.006l-95.163-.089a5.948,5.948,0,0,1,0-11.9h.006l95.163.09a5.948,5.948,0,0,1,0,11.895Z"/></g><g id="change3_164"><path d="M274.141,532.3a29.308,29.308,0,0,1-2.665-58.5c.844-.078,1.746-.119,2.665-.119a29.307,29.307,0,0,1,.953,58.6l-.053,0-.139-5.946.118,5.946C274.731,532.29,274.436,532.3,274.141,532.3Zm.761-5.959h0Zm-.761-40.76c-.56,0-1.077.023-1.578.07a17.413,17.413,0,0,0,1.578,34.754c.2,0,.4,0,.595-.01a17.412,17.412,0,0,0-.595-34.814Z"/></g><g id="change1_31"><path d="M939.343,283.719H900.885a4.461,4.461,0,0,1,0-8.922h38.458a4.461,4.461,0,0,1,0,8.922Z" fill="#ff5b19"/></g><g id="change1_32"><path d="M939.343,254.854H900.885a4.461,4.461,0,1,1,0-8.921h38.458a4.461,4.461,0,0,1,0,8.921Z" fill="#ff5b19"/></g><g id="change1_33"><path d="M939.343,312.583H900.885a4.461,4.461,0,0,1,0-8.922h38.458a4.461,4.461,0,0,1,0,8.922Z" fill="#ff5b19"/></g><g id="change1_34"><path d="M730.382,283.719H691.919a4.461,4.461,0,0,1,0-8.922h38.463a4.461,4.461,0,1,1,0,8.922Z" fill="#ff5b19"/></g><g id="change1_35"><path d="M730.382,254.854H691.919a4.461,4.461,0,1,1,0-8.921h38.463a4.461,4.461,0,1,1,0,8.921Z" fill="#ff5b19"/></g><g id="change1_36"><path d="M730.382,312.583H691.919a4.461,4.461,0,0,1,0-8.922h38.463a4.461,4.461,0,0,1,0,8.922Z" fill="#ff5b19"/></g><g id="change1_37"><path d="M815.631,199.844a4.461,4.461,0,0,1-4.461-4.461V156.949a4.461,4.461,0,0,1,8.921,0v38.434A4.46,4.46,0,0,1,815.631,199.844Z" fill="#ff5b19"/></g><g id="change1_38"><path d="M786.748,199.844a4.46,4.46,0,0,1-4.46-4.461V156.949a4.461,4.461,0,0,1,8.921,0v38.434A4.461,4.461,0,0,1,786.748,199.844Z" fill="#ff5b19"/></g><g id="change1_39"><path d="M844.519,199.844a4.461,4.461,0,0,1-4.461-4.461V156.949a4.461,4.461,0,0,1,8.922,0v38.434A4.461,4.461,0,0,1,844.519,199.844Z" fill="#ff5b19"/></g><g id="change1_40"><path d="M815.631,415.287a4.46,4.46,0,0,1-4.461-4.46V372.393a4.461,4.461,0,1,1,8.921,0v38.434A4.46,4.46,0,0,1,815.631,415.287Z" fill="#ff5b19"/></g><g id="change1_41"><path d="M786.748,415.287a4.46,4.46,0,0,1-4.46-4.46V372.393a4.461,4.461,0,1,1,8.921,0v38.434A4.46,4.46,0,0,1,786.748,415.287Z" fill="#ff5b19"/></g><g id="change1_42"><path d="M844.519,415.287a4.46,4.46,0,0,1-4.461-4.46V372.393a4.461,4.461,0,0,1,8.922,0v38.434A4.46,4.46,0,0,1,844.519,415.287Z" fill="#ff5b19"/></g><g id="change3_165"><path d="M1419.827,217.272a5.92,5.92,0,0,1-3.183-.928l-.79-.5c-17.322-10.9-43.566-20.658-60.524-24.649a5.947,5.947,0,1,1,2.725-11.578c17.367,4.086,44.853,14.021,64.161,26.176l.806.513a5.949,5.949,0,0,1-3.195,10.969Z"/></g><g id="change3_166"><path d="M1215.137,216.427a5.948,5.948,0,0,1-3.187-10.974,197.108,197.108,0,0,1,59.121-24.7,5.948,5.948,0,0,1,2.756,11.572,185.085,185.085,0,0,0-55.516,23.179A5.912,5.912,0,0,1,1215.137,216.427Z"/></g><g id="change3_167"><path d="M1130.168,336.321a6.042,6.042,0,0,1-1.286-.14,5.948,5.948,0,0,1-4.528-7.089,250.446,250.446,0,0,1,12.152-40.542,150.611,150.611,0,0,1,12.338-24.168,5.948,5.948,0,0,1,10.028,6.4,138.56,138.56,0,0,0-11.347,22.25,238.6,238.6,0,0,0-11.554,38.619A5.95,5.95,0,0,1,1130.168,336.321Z"/></g><g id="change3_168"><path d="M1154.179,480.82a5.944,5.944,0,0,1-5.081-2.848,198.729,198.729,0,0,1-24.751-62.11,5.948,5.948,0,0,1,11.631-2.493,186.879,186.879,0,0,0,23.271,58.4,5.949,5.949,0,0,1-5.07,9.049Z"/></g><g id="change3_169"><path d="M1274.7,567.282a5.966,5.966,0,0,1-1.292-.142,193.047,193.047,0,0,1-63.423-26.563,5.948,5.948,0,1,1,6.468-9.983,181.186,181.186,0,0,0,59.528,24.932,5.948,5.948,0,0,1-1.281,11.756Z"/></g><g id="change3_170"><path d="M1358.928,567.282a5.948,5.948,0,0,1-1.224-11.768,161.27,161.27,0,0,0,58.039-24.629l.108-.073c.228-.149.456-.3.679-.46.074-.052.149-.1.224-.151a5.948,5.948,0,0,1,6.778,9.774l-3.438-4.853,3.431,4.858c-.077.055-.156.109-.235.161-.291.2-.587.4-.883.6a173.114,173.114,0,0,1-62.242,26.414A5.958,5.958,0,0,1,1358.928,567.282Zm58.05-37.218-.005,0Zm.04-.023-.039.023Zm.009-.005-.008.005Z"/></g><g id="change3_171"><path d="M1478.376,481.236a5.949,5.949,0,0,1-5.031-9.112,188.918,188.918,0,0,0,24.406-58.708l.015-.073a5.948,5.948,0,0,1,11.625,2.526l-.011.05-.021.1a200.8,200.8,0,0,1-25.941,62.435A5.943,5.943,0,0,1,1478.376,481.236Z"/></g><g id="change3_172"><path d="M1503.571,336.321a5.949,5.949,0,0,1-5.8-4.638c-5.455-24.148-13.2-44.227-23.01-59.681a5.947,5.947,0,0,1,10.041-6.377c10.7,16.844,18.734,37.6,24.572,63.437a5.951,5.951,0,0,1-5.807,7.259Z"/></g><g id="change3_173"><path d="M1352.743,608.564h-78.052a5.948,5.948,0,0,1-5.947-5.948V561.333a5.948,5.948,0,1,1,11.895,0v35.335h72.1a5.948,5.948,0,0,1,0,11.9Z"/></g><g id="change3_174"><path d="M1358.934,608.564a5.948,5.948,0,0,1-5.947-5.948V561.333a5.948,5.948,0,1,1,11.895,0v41.283A5.948,5.948,0,0,1,1358.934,608.564Z"/></g><g id="change3_175"><path d="M1183.876,570.944a5.949,5.949,0,0,1-4.206-1.741L1120.1,509.636a5.948,5.948,0,0,1-.048-8.362l29.863-30.559a5.948,5.948,0,0,1,8.508,8.313l-25.754,26.354,51.2,51.2,25.116-25.178a5.948,5.948,0,0,1,8.457,8.365l-.582.589L1188.086,569.2a5.944,5.944,0,0,1-4.207,1.746Z"/></g><g id="change3_176"><path d="M1130.163,420.563h-43.472a5.948,5.948,0,0,1-5.948-5.948V330.372a5.947,5.947,0,0,1,5.948-5.947h43.472a5.948,5.948,0,0,1,0,11.895h-37.524v72.348h37.524a5.948,5.948,0,0,1,0,11.895Z"/></g><g id="change3_177"><path d="M1215.13,216.426a5.926,5.926,0,0,1-4.153-1.691l-.482-.47-34.71-33.96a5.948,5.948,0,0,1,8.319-8.5l35.181,34.42a5.947,5.947,0,0,1-4.155,10.2Z"/></g><g id="change3_178"><path d="M1120.373,241.567a5.948,5.948,0,0,1-4.206-10.153l59.572-59.566a5.948,5.948,0,1,1,8.412,8.411l-59.573,59.566A5.926,5.926,0,0,1,1120.373,241.567Z"/></g><g id="change3_179"><path d="M1153.857,273.53a5.928,5.928,0,0,1-4.105-1.644l-33.486-31.964a5.948,5.948,0,1,1,8.214-8.6l33.484,31.962a5.948,5.948,0,0,1-4.107,10.251Z"/></g><g id="change3_180"><path d="M1272.449,192.487a5.948,5.948,0,0,1-5.948-5.948V140.718a5.948,5.948,0,0,1,5.948-5.948h84.243a5.948,5.948,0,0,1,5.948,5.948V185.4a5.948,5.948,0,1,1-11.9,0V146.666H1278.4v39.873A5.949,5.949,0,0,1,1272.449,192.487Z"/></g><g id="change3_181"><path d="M1479.786,274.761a5.948,5.948,0,0,1-4.206-10.153c3.818-3.818,11.138-11.139,17.936-17.943l.043-.042c.29-.283.573-.567.857-.851l10.212-10.218-50.346-50.346-30.238,30.316a5.948,5.948,0,0,1-8.422-8.4l34.447-34.537a5.947,5.947,0,0,1,8.412,0l58.764,58.763a5.949,5.949,0,0,1,0,8.412s-6.762,6.762-14.415,14.421c-.306.306-.61.61-.92.914-6.793,6.8-14.1,14.11-17.919,17.924A5.925,5.925,0,0,1,1479.786,274.761Z"/></g><g id="change3_182"><path d="M1546.941,420.563h-43.365a5.948,5.948,0,0,1,0-11.895h37.417V336.32h-37.417a5.948,5.948,0,0,1,0-11.895h43.365a5.947,5.947,0,0,1,5.948,5.947v84.243A5.948,5.948,0,0,1,1546.941,420.563Z"/></g><g id="change3_183"><path d="M1449.756,570.95a5.927,5.927,0,0,1-4.206-1.742l-3.061-3.061c-6.451-6.451-21.293-21.293-26.709-26.715a5.947,5.947,0,0,1,8.415-8.407c5.116,5.121,18.642,18.648,25.561,25.567l51.105-51.1-26.63-25.943a5.948,5.948,0,1,1,8.3-8.52l30.946,30.148a5.946,5.946,0,0,1,.055,8.466l-59.572,59.566A5.93,5.93,0,0,1,1449.756,570.95Z"/></g><g id="change3_184"><path d="M1320.048,447.149a74.653,74.653,0,0,1-5.124-149.13c1.64-.119,3.374-.181,5.124-.181a74.655,74.655,0,0,1,3.64,149.221h0C1322.447,447.119,1321.222,447.149,1320.048,447.149Zm0-137.415c-1.464,0-2.909.05-4.293.151a62.758,62.758,0,0,0,4.293,125.369c.985,0,2.017-.026,3.069-.076h0a62.76,62.76,0,0,0-3.069-125.444Z"/></g></g></g></svg>