<?xml version="1.0" encoding="UTF-8"?><svg xmlns="http://www.w3.org/2000/svg" xmlns:xlink="http://www.w3.org/1999/xlink" height="485.9" preserveAspectRatio="xMidYMid meet" version="1.0" viewBox="0.0 0.0 389.0 485.9" width="389.0" zoomAndPan="magnify"><g id="change1_1"><path d="M389,92.48v367.07c0,14.52-11.77,26.3-26.3,26.3H26.3c-14.52,0-26.3-11.77-26.3-26.3V26.3C0,11.77,11.77,0,26.3,0h261.82 L389,92.48z" fill="inherit"/></g><g id="change2_1"><path d="M329.57,445.5H59.43c-15.78,0-28.62-12.84-28.62-28.62V68.97c0-15.78,12.84-28.62,28.62-28.62H272.6 l85.59,78.47v298.07C358.19,432.66,345.35,445.5,329.57,445.5z M59.43,55.35c-7.51,0-13.62,6.11-13.62,13.62v347.91 c0,7.51,6.11,13.62,13.62,13.62h270.15c7.51,0,13.62-6.11,13.62-13.62V125.41l-76.43-70.06H59.43z" fill="#FFF"/></g><g id="change2_2"><path d="M305.58,122.1L210.9,247.39l-33.55,44.4l-44.4-33.55l-49.53-37.43l21.04-27.84l69.75,44.72L305.58,122.1 L305.58,122.1z" fill="#FFF"/></g><g id="change2_3"><path d="M93.01,391.38c-4.64-1.1-8.44-2.57-11.42-4.42l6.41-14.5c2.81,1.63,5.96,2.94,9.44,3.92 c3.48,0.98,6.83,1.48,10.03,1.48c2.75,0,4.72-0.27,5.9-0.8c1.18-0.53,1.77-1.33,1.77-2.4c0-1.24-0.77-2.16-2.32-2.78 c-1.55-0.62-4.09-1.29-7.63-2.02c-4.55-0.96-8.34-1.98-11.38-3.08c-3.03-1.1-5.68-2.89-7.92-5.39c-2.25-2.5-3.37-5.89-3.37-10.16 c0-3.71,1.04-7.08,3.12-10.11c2.08-3.04,5.18-5.42,9.31-7.17c4.13-1.74,9.15-2.61,15.05-2.61c4.05,0,8.02,0.44,11.93,1.31 c3.9,0.87,7.35,2.15,10.33,3.83l-5.98,14.41c-5.79-2.92-11.27-4.38-16.44-4.38c-5.11,0-7.67,1.24-7.67,3.71 c0,1.18,0.76,2.07,2.28,2.66c1.52,0.59,4.02,1.22,7.5,1.9c4.5,0.84,8.29,1.81,11.38,2.91c3.09,1.1,5.77,2.88,8.05,5.35 c2.28,2.47,3.41,5.84,3.41,10.11c0,3.71-1.04,7.07-3.12,10.07c-2.08,3.01-5.18,5.39-9.31,7.16c-4.13,1.77-9.15,2.66-15.05,2.66 C102.41,393.02,97.65,392.48,93.01,391.38z M154.33,389.1c-5-2.61-8.92-6.26-11.76-10.96c-2.84-4.69-4.26-10.02-4.26-15.97 c0-5.96,1.42-11.28,4.26-15.97c2.84-4.69,6.76-8.34,11.76-10.96c5-2.61,10.62-3.92,16.86-3.92c5.73,0,10.84,1.01,15.34,3.04 c4.5,2.02,8.2,4.95,11.13,8.77l-12.56,11.21c-3.65-4.61-7.95-6.91-12.9-6.91c-4.16,0-7.5,1.34-10.03,4 c-2.53,2.67-3.79,6.25-3.79,10.75c0,4.5,1.26,8.08,3.79,10.75c2.53,2.67,5.87,4,10.03,4c4.94,0,9.24-2.3,12.9-6.91l12.56,11.21 c-2.92,3.82-6.63,6.74-11.13,8.77c-4.5,2.02-9.61,3.03-15.34,3.03C164.96,393.02,159.34,391.72,154.33,389.1z M210.26,391.38 c-4.64-1.1-8.44-2.57-11.42-4.42l6.41-14.5c2.81,1.63,5.96,2.94,9.44,3.92c3.48,0.98,6.83,1.48,10.03,1.48c2.75,0,4.72-0.27,5.9-0.8 c1.18-0.53,1.77-1.33,1.77-2.4c0-1.24-0.77-2.16-2.32-2.78c-1.55-0.62-4.09-1.29-7.63-2.02c-4.55-0.96-8.34-1.98-11.38-3.08 c-3.03-1.1-5.68-2.89-7.92-5.39c-2.25-2.5-3.37-5.89-3.37-10.16c0-3.71,1.04-7.08,3.12-10.11c2.08-3.04,5.18-5.42,9.31-7.17 c4.13-1.74,9.14-2.61,15.04-2.61c4.05,0,8.02,0.44,11.93,1.31c3.9,0.87,7.35,2.15,10.33,3.83l-5.98,14.41 c-5.79-2.92-11.27-4.38-16.44-4.38c-5.11,0-7.67,1.24-7.67,3.71c0,1.18,0.76,2.07,2.28,2.66c1.52,0.59,4.02,1.22,7.5,1.9 c4.49,0.84,8.29,1.81,11.38,2.91c3.09,1.1,5.77,2.88,8.05,5.35c2.28,2.47,3.41,5.84,3.41,10.11c0,3.71-1.04,7.07-3.12,10.07 c-2.08,3.01-5.18,5.39-9.31,7.16c-4.13,1.77-9.15,2.66-15.05,2.66C219.66,393.02,214.9,392.48,210.26,391.38z M265.64,391.38 c-4.64-1.1-8.44-2.57-11.42-4.42l6.41-14.5c2.81,1.63,5.96,2.94,9.44,3.92c3.48,0.98,6.83,1.48,10.03,1.48c2.75,0,4.72-0.27,5.9-0.8 c1.18-0.53,1.77-1.33,1.77-2.4c0-1.24-0.77-2.16-2.32-2.78c-1.55-0.62-4.09-1.29-7.63-2.02c-4.55-0.96-8.34-1.98-11.38-3.08 c-3.03-1.1-5.68-2.89-7.92-5.39c-2.25-2.5-3.37-5.89-3.37-10.16c0-3.71,1.04-7.08,3.12-10.11c2.08-3.04,5.18-5.42,9.31-7.17 c4.13-1.74,9.14-2.61,15.04-2.61c4.05,0,8.02,0.44,11.93,1.31c3.9,0.87,7.35,2.15,10.33,3.83l-5.98,14.41 c-5.79-2.92-11.27-4.38-16.44-4.38c-5.11,0-7.67,1.24-7.67,3.71c0,1.18,0.76,2.07,2.28,2.66c1.52,0.59,4.02,1.22,7.5,1.9 c4.49,0.84,8.29,1.81,11.38,2.91c3.09,1.1,5.77,2.88,8.05,5.35c2.28,2.47,3.41,5.84,3.41,10.11c0,3.71-1.04,7.07-3.12,10.07 c-2.08,3.01-5.18,5.39-9.31,7.16c-4.13,1.77-9.15,2.66-15.05,2.66C275.04,393.02,270.27,392.48,265.64,391.38z" fill="#FFF"/></g></svg>