<?xml version="1.0" encoding="UTF-8"?><svg xmlns="http://www.w3.org/2000/svg" xmlns:xlink="http://www.w3.org/1999/xlink" height="12.0" preserveAspectRatio="xMidYMid meet" version="1.0" viewBox="1.0 2.0 14.0 12.0" width="14.0" zoomAndPan="magnify"><g id="change1_1"><path d="M 2.5 2 C 1.6774686 2 1 2.6774686 1 3.5 L 1 8 L 2 8 L 2 5 L 14 5 L 14 12.5 C 14 12.781469 13.781469 13 13.5 13 L 13 13 L 13 14 L 13.5 14 C 14.322531 14 15 13.322531 15 12.5 L 15 3.5 C 15 2.6774686 14.322531 2 13.5 2 L 2.5 2 z M 2.5 3 L 13.5 3 C 13.781469 3 14 3.2185314 14 3.5 L 14 4 L 2 4 L 2 3.5 C 2 3.2185314 2.2185314 3 2.5 3 z M 2.4980469 9 C 1.9080469 9 1.5629531 9.2384531 1.3769531 9.4394531 C 0.96595312 9.8824531 0.997 10.472 1 10.5 C 1 11.308 1.7344844 11.672453 2.2714844 11.939453 C 2.6974844 12.150453 2.9980469 12.313812 2.9980469 12.507812 C 2.9980469 12.509813 2.9884219 12.751766 2.8574219 12.884766 C 2.8294219 12.913766 2.7440469 13 2.4980469 13 L 1.0917969 13 C 1.1517969 13.191 1.2457344 13.402891 1.4277344 13.587891 C 1.6117344 13.775891 1.9480469 14 2.4980469 14 C 3.0480469 14 3.3843125 13.774937 3.5703125 13.585938 C 3.9963125 13.152938 3.9990469 12.558 3.9980469 12.5 C 3.9980469 11.68 3.2558437 11.311969 2.7148438 11.042969 C 2.2958437 10.834969 1.9990469 10.67375 1.9980469 10.46875 C 1.9980469 10.46675 1.9913281 10.242187 2.1113281 10.117188 C 2.1853281 10.040188 2.3150469 10 2.4980469 10 L 3.9121094 10 C 3.7441094 9.497 3.3140469 9 2.4980469 9 z M 6.5214844 9 C 5.9314844 9 5.5844375 9.2394531 5.3984375 9.4394531 C 4.9874375 9.8824531 5.0184844 10.472 5.0214844 10.5 C 5.0214844 11.308 5.7559688 11.672453 6.2929688 11.939453 C 6.7189688 12.150453 7.0195312 12.313812 7.0195312 12.507812 C 7.0195312 12.509813 7.0118594 12.751766 6.8808594 12.884766 C 6.8528594 12.914766 6.7674844 13 6.5214844 13 L 5.1132812 13 C 5.1732812 13.191 5.2672188 13.402891 5.4492188 13.587891 C 5.6342188 13.776891 5.9714844 14 6.5214844 14 C 7.0714844 14 7.40775 13.774937 7.59375 13.585938 C 8.01975 13.152938 8.0205313 12.558 8.0195312 12.5 C 8.0195312 11.681 7.2792813 11.312969 6.7382812 11.042969 C 6.3192813 10.834969 6.0224844 10.67375 6.0214844 10.46875 C 6.0214844 10.46675 6.0147656 10.242187 6.1347656 10.117188 C 6.2077656 10.040188 6.3394844 10 6.5214844 10 L 7.9355469 10 C 7.7675469 9.498 7.3374844 9 6.5214844 9 z M 9 9 L 9 14 L 10 14 L 10 12 L 11 12 L 11 14 L 12 14 L 12 9 L 11 9 L 11 11 L 10 11 L 10 9 L 9 9 z" fill="inherit"/></g></svg>