<?xml version="1.0" encoding="UTF-8"?><svg xmlns="http://www.w3.org/2000/svg" xmlns:xlink="http://www.w3.org/1999/xlink" height="209.3" preserveAspectRatio="xMidYMid" version="1.1" viewBox="0.0 0.0 256.0 209.3" width="256.0" zoomAndPan="magnify">
 <g>
  <rect height="209.34" rx="5" width="256" x="0" y="0"/>
  <path d="m28.241 21.774c-0.855-0.856-1.888-1.284-3.098-1.284-1.209 0-2.246 0.432-3.11 1.296-0.852 0.852-1.284 1.888-1.284 3.098s0.432 2.247 1.284 3.098l13.442 13.442-13.43 13.43c-0.864 0.864-1.296 1.9-1.308 3.11 0.012 1.21 0.444 2.247 1.296 3.098 0.864 0.852 1.901 1.284 3.098 1.296 1.222 0 2.259-0.432 3.123-1.296l14.935-14.947c3.135-3.123 3.135-6.258 0-9.394l-14.948-14.947zm58.545 33.104c-0.864-0.864-1.913-1.296-3.135-1.296v-0.006h-28.834v0.006c-1.222 0-2.259 0.432-3.123 1.296s-1.296 1.901-1.296 3.123 0.432 2.271 1.296 3.135 1.901 1.296 3.123 1.296v-0.006h28.834v0.006c1.222 0 2.271-0.432 3.135-1.296s1.296-1.913 1.296-3.135-0.432-2.259-1.296-3.123z" fill="#fff"/>
 </g>
</svg>