<?xml version="1.0" encoding="UTF-8"?><svg xmlns="http://www.w3.org/2000/svg" xmlns:xlink="http://www.w3.org/1999/xlink" height="38.0" preserveAspectRatio="xMidYMid meet" version="1.0" viewBox="7.0 5.0 34.0 38.0" width="34.0" zoomAndPan="magnify"><g id="change1_1"><path d="M41,5H7l3,34l14,4l14-4L41,5L41,5z" fill="#0277BD"/></g><g id="change2_1"><path d="M24 8L24 39.9 35.2 36.7 37.7 8z" fill="#039BE5"/></g><g id="change3_1"><path d="M33.1 13L24 13 24 17 28.9 17 28.6 21 24 21 24 25 28.4 25 28.1 29.5 24 30.9 24 35.1 31.9 32.5 32.6 21 32.6 21z" fill="#FFF"/></g><g id="change4_1"><path d="M24,13v4h-8.9l-0.3-4H24z M19.4,21l0.2,4H24v-4H19.4z M19.8,27h-4l0.3,5.5l7.9,2.6v-4.2l-4.1-1.4L19.8,27z" fill="#EEE"/></g></svg>