<?xml version="1.0" encoding="UTF-8"?><svg xmlns="http://www.w3.org/2000/svg" xmlns:xlink="http://www.w3.org/1999/xlink" height="93.2" preserveAspectRatio="xMidYMid meet" version="1.0" viewBox="5.0 1.7 90.1 93.2" width="90.1" zoomAndPan="magnify"><g><g><g id="change1_1"><path d="M92.9,80.7L81.7,68.1c-0.8-0.9-1.9-1.4-3.1-1.5c-1.2-0.1-2.4,0.3-3.3,1.1l-1.9,1.7l-4.2-4.8C78.6,55.5,82,42,78,29.5 l8.5-8.5l2.3,2.3c0.4,0.4,1,0.5,1.5,0.4c0.5-0.2,0.9-0.6,1-1.2l2.5-15.6c0.1-0.5-0.1-1-0.4-1.3s-0.8-0.5-1.3-0.4L76.6,7.7 c-0.6,0.1-1,0.5-1.2,1c-0.2,0.5,0,1.1,0.4,1.5l2.3,2.3l-6,5.9c-0.3-0.4-0.7-0.8-1-1.2c-12.5-14.1-34.2-15.5-48.4-3 c-1.9,1.7-3.5,3.5-4.9,5.4c0,0,0,0,0,0c0,0-0.1,0.1-0.1,0.1c-1.9,2.6-3.4,5.5-4.5,8.5C13.1,28.6,13,28.8,13,29 c-3.2,9.5-2.2,20.2,3.3,29.1H6.5C5.7,58,5,58.7,5,59.5v29.8c0,0.8,0.7,1.5,1.5,1.5h50.8c0.8,0,1.5-0.7,1.5-1.5V71.4 c2.9-1.2,5.7-2.9,8.2-4.9l4.2,4.8L69.3,73c-0.9,0.8-1.4,1.9-1.5,3.1c-0.1,1.2,0.3,2.4,1.1,3.3L80.1,92c1.7,1.9,4,2.9,6.4,2.9 c2,0,4-0.7,5.6-2.1c1.7-1.5,2.7-3.6,2.8-5.8C95.1,84.6,94.4,82.4,92.9,80.7z M81.3,11.5l-1.3-1.3l10.7-1.7l-1.7,10.7l-1.3-1.3 c-0.6-0.6-1.5-0.6-2.1,0L75.3,28c0,0,0,0,0,0L59.1,44.2L51,36.1c-0.6-0.6-1.5-0.6-2.1,0L36.2,48.7l-20-19.9 c0.7-2,1.7-3.9,2.8-5.6l16.1,16.1c0.6,0.6,1.5,0.6,2.1,0l12.7-12.6l8.1,8.1c0.6,0.6,1.5,0.6,2.1,0l21.1-21 c0.3-0.3,0.4-0.7,0.4-1.1S81.5,11.8,81.3,11.5z M24.7,16.6C37.6,5.2,57.4,6.4,68.8,19.3c0.4,0.4,0.8,0.9,1.1,1.4L59.1,31.5 L51,23.4c-0.6-0.6-1.5-0.6-2.1,0L36.2,36L20.8,20.7C22,19.2,23.3,17.8,24.7,16.6z M55.8,87.8H8V61h47.8V87.8z M57.3,58H19.9 c-5.5-7.7-7-17.3-4.7-26l19.9,19.9c0.3,0.3,0.7,0.4,1.1,0.4s0.8-0.1,1.1-0.4l12.7-12.6l8.1,8.1c0.6,0.6,1.5,0.6,2.1,0l15.5-15.4 c3,11.4-0.6,23.5-9.5,31.4c-2.2,2-4.7,3.6-7.3,4.8v-8.6C58.8,58.7,58.1,58,57.3,58z M90.2,90.5c-2.3,2-5.8,1.8-7.8-0.5L71.2,77.3 c-0.3-0.3-0.4-0.7-0.4-1.1c0-0.4,0.2-0.8,0.5-1l6-5.3c0.3-0.2,0.6-0.4,1-0.4c0,0,0.1,0,0.1,0c0.4,0,0.8,0.2,1,0.5c0,0,0,0,0,0 l11.2,12.7c1,1.1,1.4,2.5,1.4,4C91.9,88.2,91.2,89.5,90.2,90.5z" fill="inherit"/><path d="M12,70.9c0,2.8,2.3,5,5,5h0.8c1.1,0,2,0.9,2,2s-0.9,2-2,2h-4.3c-0.8,0-1.5,0.7-1.5,1.5s0.7,1.5,1.5,1.5h4.3 c2.8,0,5-2.2,5-5s-2.3-5-5-5H17c-1.1,0-2-0.9-2-2c0-1.1,0.9-2,2-2h4.3c0.8,0,1.5-0.7,1.5-1.5s-0.7-1.5-1.5-1.5H17 C14.3,65.9,12,68.1,12,70.9z" fill="inherit"/><path d="M28,82.9h7.8c0.8,0,1.5-0.7,1.5-1.5s-0.7-1.5-1.5-1.5h-6.3v-4h6.3c0.8,0,1.5-0.7,1.5-1.5s-0.7-1.5-1.5-1.5h-6.3v-4h6.3 c0.8,0,1.5-0.7,1.5-1.5s-0.7-1.5-1.5-1.5H28c-0.8,0-1.5,0.7-1.5,1.5v14C26.5,82.2,27.2,82.9,28,82.9z" fill="inherit"/><path d="M46.4,82.9c3,0,5.4-2.4,5.4-5.4v-6.3c0-3-2.4-5.4-5.4-5.4c-3,0-5.4,2.4-5.4,5.4v6.3C41,80.5,43.4,82.9,46.4,82.9z M44,71.3c0-1.3,1.1-2.4,2.4-2.4c1.3,0,2.4,1.1,2.4,2.4v6.3c0,1.3-1.1,2.4-2.4,2.4c-1.3,0-2.4-1.1-2.4-2.4V71.3z" fill="inherit"/></g></g></g></svg>