<?xml version="1.0" encoding="UTF-8"?><svg xmlns="http://www.w3.org/2000/svg" xmlns:xlink="http://www.w3.org/1999/xlink" fill="none" height="149.6" preserveAspectRatio="xMidYMid meet" style="fill: none;" version="1.0" viewBox="-0.0 -0.2 150.0 149.6" width="150.0" zoomAndPan="magnify"><g id="change1_1"><path d="M144.671 15.778L113.814 0.933235C112.069 0.0877601 110.103 -0.192772 108.191 0.130663C106.279 0.454098 104.516 1.36542 103.146 2.73785L44.0433 56.6654L18.2865 37.1334C17.1265 36.2465 15.692 35.795 14.2332 35.8576C12.7744 35.9201 11.3838 36.4927 10.304 37.4755L2.05431 44.994C1.40951 45.5767 0.893669 46.2878 0.539894 47.0816C0.18612 47.8754 0.00222699 48.7344 2.01021e-05 49.6035C-0.00218679 50.4725 0.177341 51.3325 0.52708 52.1281C0.876818 52.9237 1.38904 53.6373 2.03087 54.2233L24.3706 74.6084L2.03087 94.9936C1.38904 95.5795 0.876818 96.2932 0.52708 97.0888C0.177341 97.8844 -0.00218679 98.7443 2.01021e-05 99.6134C0.00222699 100.482 0.18612 101.341 0.539894 102.135C0.893669 102.929 1.40951 103.64 2.05431 104.223L10.304 111.741C11.3838 112.724 12.7744 113.297 14.2332 113.359C15.692 113.422 17.1265 112.97 18.2865 112.084L44.0433 92.528L103.174 146.479C104.539 147.851 106.299 148.763 108.207 149.086C110.116 149.41 112.077 149.129 113.819 148.284L144.703 133.415C146.294 132.651 147.635 131.453 148.573 129.958C149.51 128.463 150.005 126.733 150 124.969V24.2151C150 20.6246 147.924 17.3295 144.68 15.7686L144.671 15.778ZM112.516 108.671L67.6439 74.6131L112.516 40.5551V108.671Z" fill="#1A54BF"/></g></svg>