<?xml version="1.0" encoding="UTF-8" standalone="no"?><svg xmlns="http://www.w3.org/2000/svg" xmlns:xlink="http://www.w3.org/1999/xlink" fill="#000000" height="24" preserveAspectRatio="xMidYMid meet" version="1" viewBox="1.0 0.0 22.0 24.0" width="22" zoomAndPan="magnify"><g id="change1_1"><path d="M2.371 6.006L2.372 6.005 2.371 6.005z" fill="inherit"/></g><g id="change2_1"><path d="M12.434 18.74L18.513 15.452 18.513 8.939 12.434 12.391z" fill="#1b75bb"/></g><g id="change3_1"><path d="M23 6.39L19.381 8.444 19.381 15.839 23 17.896z" fill="#8dd3f6"/></g><g id="change2_2"><path d="M18.105 8.185L12.002 4.883 5.899 8.185 12.002 11.65z" fill="#1b75bb"/></g><g id="change3_2"><path d="M18.597 16.38L12.434 19.714 12.434 24 22.324 18.498z" fill="#8dd3f6"/></g><g id="change3_3"><path d="M11.567 19.714L5.405 16.38 1.677 18.498 11.567 24z" fill="#8dd3f6"/></g><g id="change3_4"><path d="M1 17.896L4.619 15.839 4.619 8.444 1 6.39z" fill="#8dd3f6"/></g><g id="change3_5"><path d="M5.019 7.686L11.566 4.144 11.566 0 1.424 5.644z" fill="#8dd3f6"/></g><g id="change2_3"><path d="M11.567 12.391L5.488 8.939 5.488 15.452 11.567 18.74z" fill="#1b75bb"/></g><g id="change3_6"><path d="M12.434 4.144L18.981 7.687 22.577 5.644 12.434 0z" fill="#8dd3f6"/></g></svg>